<?xml version="1.0" encoding="UTF-8" standalone="no"?>
<!-- Created with Inkscape (http://www.inkscape.org/) -->

<svg
   xmlns:dc="http://purl.org/dc/elements/1.1/"
   xmlns:cc="http://creativecommons.org/ns#"
   xmlns:rdf="http://www.w3.org/1999/02/22-rdf-syntax-ns#"
   xmlns:svg="http://www.w3.org/2000/svg"
   xmlns="http://www.w3.org/2000/svg"
   xmlns:sodipodi="http://sodipodi.sourceforge.net/DTD/sodipodi-0.dtd"
   xmlns:inkscape="http://www.inkscape.org/namespaces/inkscape"
   width="144.5836"
   height="109.4738"
   viewBox="0 0 38.254411 28.964944"
   version="1.1"
   id="svg8"
   inkscape:version="0.92.3 (unknown)"
   sodipodi:docname="dibujo-3.svg">
  <defs
     id="defs2" />
  <sodipodi:namedview
     id="base"
     pagecolor="#ffffff"
     bordercolor="#666666"
     borderopacity="1.0"
     inkscape:pageopacity="0.0"
     inkscape:pageshadow="2"
     inkscape:zoom="1.73"
     inkscape:cx="194.24252"
     inkscape:cy="59.087207"
     inkscape:document-units="px"
     inkscape:current-layer="layer1"
     showgrid="false"
     inkscape:window-width="1024"
     inkscape:window-height="573"
     inkscape:window-x="0"
     inkscape:window-y="0"
     inkscape:window-maximized="1"
     units="px"
     fit-margin-top="0"
     fit-margin-left="0"
     fit-margin-right="0"
     fit-margin-bottom="0" />
  <metadata
     id="metadata5">
    <rdf:RDF>
      <cc:Work
         rdf:about="">
        <dc:format>image/svg+xml</dc:format>
        <dc:type
           rdf:resource="http://purl.org/dc/dcmitype/StillImage" />
        <dc:title></dc:title>
      </cc:Work>
    </rdf:RDF>
  </metadata>
  <g
     inkscape:label="Capa 1"
     inkscape:groupmode="layer"
     id="layer1"
     transform="translate(-86.120868,-113.72267)">
    <path
       style="fill:none;fill-opacity:1;stroke:#f3e9e9;stroke-width:2.076864;stroke-linecap:butt;stroke-linejoin:miter;stroke-miterlimit:4;stroke-dasharray:none;stroke-opacity:1"
       d="m 119.15093,115.57182 c -0.0624,0.002 -0.13847,0.0206 -0.22929,0.0566 -1.79237,0.71121 -3.54975,0.28835 -5.055,1.22449 -0.90164,0.56073 -1.65798,1.23206 -2.0221,1.94842 l 0.11269,-1.18886 -1.21229,-0.42442 0.18197,0.90933 0.10732,1.96503 c -0.36894,-0.70698 -1.11779,-1.36936 -2.00892,-1.92356 -1.50526,-0.93613 -3.26264,-0.51328 -5.055,-1.22448 -1.02426,-0.40642 -0.17096,1.45202 0.94835,2.91339 -1.39168,-0.36702 -2.93303,-0.19947 -4.49935,0.38148 -1.322708,0.49066 -2.423483,1.484 -3.165103,2.85046 l -1.588895,-5.95507 -1.283993,0.0239 0.486373,0.78933 2.255286,5.19062 c -1.45321,-0.55243 -2.93561,-0.58848 -4.258364,-0.0981 -3.678013,1.36382 -5.774777,4.36226 -3.999313,9.14994 0.917832,2.47504 4.144382,5.95757 6.006781,7.06538 2.211983,1.31577 3.267624,1.73319 5.044278,1.07423 1.3456,-0.50033 1.94685,-1.48362 2.5914,-2.8724 0.26707,0.12119 0.5212,0.22773 0.7703,0.32441 0.0824,0.11654 0.16412,0.22652 0.24392,0.32539 1.61645,2.00279 2.46101,2.76126 4.35593,2.76118 1.43562,-9.4e-4 2.34131,-0.71384 3.42854,-1.79184 1.08723,1.078 1.99292,1.7906 3.42855,1.79184 1.89491,8e-5 2.73946,-0.75839 4.35592,-2.76118 1.36098,-1.68626 3.17539,-6.07357 3.17536,-8.71332 -6e-5,-5.10627 -3.00852,-7.18801 -6.93124,-7.18784 -1.41078,1.1e-4 -2.78836,0.54901 -3.95883,1.57231 l 0.33125,-3.49977 c 0.004,0.011 0.006,0.0218 0.01,0.0327 0.37831,1.01765 3.32387,0.62831 4.82913,-0.30783 1.41119,-0.87762 3.54113,-4.43554 2.60458,-4.40179 z m -8.02839,6.10045 0.11366,2.07576 c -0.89742,-0.78445 -1.91652,-1.28938 -2.97924,-1.48206 -0.0784,-0.11231 -0.15801,-0.22131 -0.23953,-0.32588 1.32282,0.34256 2.73704,0.33491 3.10511,-0.26782 z"
       id="path1142"
       inkscape:connector-curvature="0" />
    <path
       style="fill:#4f4e3e;fill-opacity:1;stroke:none;stroke-width:0.15031879px;stroke-linecap:butt;stroke-linejoin:miter;stroke-opacity:1"
       d="m 94.38114,117.12845 1.284134,-0.0237 1.831747,6.86507 -2.629253,-6.05214 z"
       id="path903"
       inkscape:connector-curvature="0" />
    <path
       style="opacity:1;fill:#b21114;fill-opacity:1;stroke:none;stroke-width:0.16611232;stroke-linecap:round;stroke-linejoin:round;stroke-miterlimit:4;stroke-dasharray:none;stroke-dashoffset:0;stroke-opacity:1;paint-order:stroke markers fill"
       d="m 92.864557,123.01063 c -3.678012,1.36382 -5.774899,4.36221 -3.999435,9.14988 0.917832,2.47504 4.144514,5.95727 6.006913,7.06508 2.211983,1.31576 3.267775,1.73353 5.044419,1.07457 1.345616,-0.50032 1.946946,-1.48362 2.591496,-2.8724 1.39422,0.63269 2.49127,0.98613 3.83775,0.48811 1.7767,-0.65881 2.3048,-1.66397 3.12399,-4.10384 0.68974,-2.05427 0.86568,-6.79838 -0.0522,-9.27339 -1.77556,-4.78764 -5.32045,-5.69376 -8.99835,-4.32963 -1.339672,0.49694 -2.453126,1.50833 -3.194859,2.90203 -0.0099,-0.005 -0.02039,-0.008 -0.0304,-0.0128 -0.0047,0.01 -0.0101,0.0196 -0.01473,0.0296 -1.471118,-0.57306 -2.974777,-0.61389 -4.314543,-0.11716 z"
       id="path900"
       inkscape:connector-curvature="0" />
    <path
       inkscape:connector-curvature="0"
       id="path1124"
       d="m 93.13252,123.29103 c -3.537664,1.31178 -5.554544,4.19575 -3.846834,8.80072 0.882809,2.38061 3.986371,5.72996 5.777704,6.79549 2.127567,1.26556 3.143069,1.66739 4.851922,1.03357 1.294278,-0.4812 1.872638,-1.42701 2.492598,-2.76279 1.34102,0.60855 2.39621,0.94849 3.69131,0.46947 1.70891,-0.63366 2.21685,-1.60046 3.00477,-3.94724 0.66342,-1.97588 0.83265,-6.53895 -0.0502,-8.91951 -1.70779,-4.60495 -5.11741,-5.47649 -8.65496,-4.16442 -1.288566,0.47798 -2.35952,1.45079 -3.072951,2.79129 -0.0096,-0.005 -0.01964,-0.008 -0.02926,-0.0124 -0.0047,0.01 -0.0097,0.0189 -0.01416,0.0284 -1.414977,-0.55118 -2.861267,-0.59046 -4.149905,-0.11268 z"
       style="opacity:1;fill:#faefad;fill-opacity:1;stroke:none;stroke-width:0.15977351;stroke-linecap:round;stroke-linejoin:round;stroke-miterlimit:4;stroke-dasharray:none;stroke-dashoffset:0;stroke-opacity:1;paint-order:stroke markers fill" />
    <path
       style="opacity:1;fill:#efda96;fill-opacity:0.92777776;stroke:none;stroke-width:0.13391453;stroke-linecap:round;stroke-linejoin:round;stroke-miterlimit:4;stroke-dasharray:none;stroke-dashoffset:0;stroke-opacity:1;paint-order:stroke markers fill"
       d="m 101.82959,128.82422 c 0.62006,1.67197 -0.26417,7.75537 -0.20249,6.93207 0.11262,-1.50345 -3.731897,-3.57108 -4.351954,-5.24305 -0.620048,-1.67197 0.526069,-8.47233 0.421074,-6.34267 -0.112547,2.28281 3.51332,2.98168 4.13337,4.65365 z"
       id="path1126"
       inkscape:connector-curvature="0"
       sodipodi:nodetypes="sssss" />
    <path
       sodipodi:nodetypes="sssss"
       inkscape:connector-curvature="0"
       id="path1132"
       d="m 99.351056,129.66992 c -0.159182,-0.42924 -0.526655,-0.68879 -0.820767,-0.57972 -0.294112,0.10907 -0.403497,0.54546 -0.244305,0.97471 0.159182,0.42925 1.113926,1.08188 1.033475,0.7787 -0.142633,-0.53754 0.190789,-0.74444 0.03163,-1.17369 z"
       style="opacity:1;fill:#482e1e;fill-opacity:1;stroke:none;stroke-width:0.06639314;stroke-linecap:round;stroke-linejoin:round;stroke-miterlimit:4;stroke-dasharray:none;stroke-dashoffset:0;stroke-opacity:1;paint-order:stroke markers fill" />
    <path
       style="opacity:1;fill:#482e1e;fill-opacity:1;stroke:none;stroke-width:0.06639314;stroke-linecap:round;stroke-linejoin:round;stroke-miterlimit:4;stroke-dasharray:none;stroke-dashoffset:0;stroke-opacity:1;paint-order:stroke markers fill"
       d="m 99.608691,129.53909 c -0.159182,-0.42925 -0.04984,-0.86564 0.244305,-0.97471 0.294114,-0.10907 0.661584,0.15048 0.820774,0.57972 0.15918,0.42925 -0.13916,1.54659 -0.27586,1.26426 -0.24233,-0.50055 -0.630027,-0.44003 -0.789219,-0.86927 z"
       id="path1129"
       inkscape:connector-curvature="0"
       sodipodi:nodetypes="sssss" />
    <path
       sodipodi:nodetypes="sssss"
       inkscape:connector-curvature="0"
       id="path1400"
       d="m 113.86652,116.8531 c -1.50526,0.93613 -2.61355,2.17951 -2.14926,3.4284 0.37831,1.01764 3.3238,0.62847 4.82906,-0.30767 1.50526,-0.93613 3.82851,-4.92195 2.37543,-4.34538 -1.79237,0.7112 -3.54997,0.28851 -5.05523,1.22465 z"
       style="opacity:1;fill:#506f26;fill-opacity:1;stroke:none;stroke-width:0.12509108;stroke-linecap:round;stroke-linejoin:round;stroke-miterlimit:4;stroke-dasharray:none;stroke-dashoffset:0;stroke-opacity:1;paint-order:stroke markers fill" />
    <path
       sodipodi:nodetypes="sssss"
       inkscape:connector-curvature="0"
       id="path911"
       d="m 109.02546,118.13888 c 1.50526,0.93613 2.61355,2.17952 2.14926,3.4284 -0.37831,1.01764 -3.32381,0.62846 -4.82906,-0.30766 -1.50526,-0.93613 -3.82851,-4.92196 -2.37544,-4.34539 1.79237,0.71121 3.54998,0.28852 5.05524,1.22465 z"
       style="opacity:1;fill:#517028;fill-opacity:1;stroke:none;stroke-width:0.12509108;stroke-linecap:round;stroke-linejoin:round;stroke-miterlimit:4;stroke-dasharray:none;stroke-dashoffset:0;stroke-opacity:1;paint-order:stroke markers fill" />
    <path
       inkscape:connector-curvature="0"
       id="path1134"
       d="m 110.74498,117.18816 1.21225,0.42429 -0.66962,7.07362 -0.36079,-6.58871 z"
       style="fill:#4f4e3e;fill-opacity:1;stroke:none;stroke-width:0.15031879px;stroke-linecap:butt;stroke-linejoin:miter;stroke-opacity:1" />
    <path
       inkscape:connector-curvature="0"
       id="path1122"
       d="m 107.27773,122.17597 c -3.92272,-1.7e-4 -6.93134,2.08201 -6.9314,7.18829 -4e-5,2.63975 1.8145,7.02665 3.17549,8.71291 1.61645,2.00279 2.4611,2.7616 4.35601,2.76152 1.43563,-9.4e-4 2.34134,-0.71408 3.42857,-1.79208 1.08723,1.078 1.99294,1.79085 3.42856,1.79208 1.89492,8e-5 2.73956,-0.75873 4.35601,-2.76152 1.36099,-1.68626 3.17553,-6.07316 3.17549,-8.71291 -5e-5,-5.10628 -3.00867,-7.18846 -6.9314,-7.18829 -1.42889,1.1e-4 -2.82453,0.56123 -4.00459,1.61005 -0.008,-0.008 -0.0162,-0.0149 -0.0241,-0.0226 -0.008,0.008 -0.0163,0.0149 -0.0241,0.0226 -1.18005,-1.04882 -2.5757,-1.60994 -4.00458,-1.61005 z"
       style="opacity:1;fill:#e91f22;fill-opacity:1;stroke:none;stroke-width:0.16611232;stroke-linecap:round;stroke-linejoin:round;stroke-miterlimit:4;stroke-dasharray:none;stroke-dashoffset:0;stroke-opacity:1;paint-order:stroke markers fill" />
    <path
       inkscape:connector-curvature="0"
       id="path1402"
       d="m 112.1636,120.0638 5.52887,-3.12874"
       style="fill:none;stroke:#ffffff;stroke-width:0.15031879px;stroke-linecap:butt;stroke-linejoin:miter;stroke-opacity:0.4" />
    <path
       style="fill:none;stroke:#ffffff;stroke-width:0.15031879px;stroke-linecap:butt;stroke-linejoin:miter;stroke-opacity:0.4"
       d="m 112.1636,120.0638 5.52887,-3.12874"
       id="path1404"
       inkscape:connector-curvature="0" />
    <path
       style="fill:none;stroke:#ffffff;stroke-width:0.15031879px;stroke-linecap:butt;stroke-linejoin:miter;stroke-opacity:0.4"
       d="m 110.71279,121.48325 -5.52887,-3.12874"
       id="path921"
       inkscape:connector-curvature="0" />
    <path
       inkscape:connector-curvature="0"
       id="path1406"
       d="m 113.5351,119.50662 0.77147,0.60003"
       style="fill:none;stroke:#ffffff;stroke-width:0.15031879px;stroke-linecap:butt;stroke-linejoin:miter;stroke-opacity:0.4" />
    <path
       style="fill:none;stroke:#ffffff;stroke-width:0.15031879px;stroke-linecap:butt;stroke-linejoin:miter;stroke-opacity:0.4"
       d="m 113.5351,119.50662 0.77147,0.60003"
       id="path1408"
       inkscape:connector-curvature="0" />
    <path
       style="fill:none;stroke:#ffffff;stroke-width:0.15031879px;stroke-linecap:butt;stroke-linejoin:miter;stroke-opacity:0.4"
       d="m 109.34129,120.92607 -0.77146,0.60004"
       id="path923"
       inkscape:connector-curvature="0" />
    <path
       inkscape:connector-curvature="0"
       id="path1410"
       d="m 114.73517,118.60657 1.20006,0.6429"
       style="fill:none;stroke:#ffffff;stroke-width:0.15031879px;stroke-linecap:butt;stroke-linejoin:miter;stroke-opacity:0.4" />
    <path
       style="fill:none;stroke:#ffffff;stroke-width:0.15031879px;stroke-linecap:butt;stroke-linejoin:miter;stroke-opacity:0.4"
       d="m 114.73517,118.60657 1.20006,0.6429"
       id="path1412"
       inkscape:connector-curvature="0" />
    <path
       style="fill:none;stroke:#ffffff;stroke-width:0.15031879px;stroke-linecap:butt;stroke-linejoin:miter;stroke-opacity:0.4"
       d="m 108.14123,120.02603 -1.20007,0.64289"
       id="path925"
       inkscape:connector-curvature="0" />
    <path
       inkscape:connector-curvature="0"
       id="path1414"
       d="m 116.87814,117.62081 0.90005,0.51431"
       style="fill:none;stroke:#ffffff;stroke-width:0.15031879px;stroke-linecap:butt;stroke-linejoin:miter;stroke-opacity:0.4" />
    <path
       style="fill:none;stroke:#ffffff;stroke-width:0.15031879px;stroke-linecap:butt;stroke-linejoin:miter;stroke-opacity:0.4"
       d="m 116.87814,117.62081 0.90005,0.51431"
       id="path1416"
       inkscape:connector-curvature="0" />
    <path
       inkscape:connector-curvature="0"
       id="path1418"
       d="m 115.76379,117.96368 -0.0857,-1.15721"
       style="fill:none;stroke:#ffffff;stroke-width:0.15031879px;stroke-linecap:butt;stroke-linejoin:miter;stroke-opacity:0.4" />
    <path
       style="fill:none;stroke:#ffffff;stroke-width:0.15031879px;stroke-linecap:butt;stroke-linejoin:miter;stroke-opacity:0.4"
       d="m 115.76379,117.96368 -0.0857,-1.15721"
       id="path1420"
       inkscape:connector-curvature="0" />
    <path
       style="fill:none;stroke:#ffffff;stroke-width:0.15031879px;stroke-linecap:butt;stroke-linejoin:miter;stroke-opacity:0.4"
       d="m 107.11259,119.38313 0.0857,-1.1572"
       id="path929"
       inkscape:connector-curvature="0" />
    <path
       inkscape:connector-curvature="0"
       id="path1422"
       d="m 113.5351,119.50662 -0.0429,-1.71438"
       style="fill:none;stroke:#ffffff;stroke-width:0.15031879px;stroke-linecap:butt;stroke-linejoin:miter;stroke-opacity:0.4" />
    <path
       style="fill:none;stroke:#ffffff;stroke-width:0.15031879px;stroke-linecap:butt;stroke-linejoin:miter;stroke-opacity:0.4"
       d="m 113.5351,119.50662 -0.0429,-1.71438"
       id="path1424"
       inkscape:connector-curvature="0" />
    <path
       style="fill:none;stroke:#ffffff;stroke-width:0.15031879px;stroke-linecap:butt;stroke-linejoin:miter;stroke-opacity:0.4"
       d="m 109.34129,120.92607 0.0429,-1.71437"
       id="path931"
       inkscape:connector-curvature="0" />
    <path
       inkscape:connector-curvature="0"
       id="path1426"
       d="m 114.73517,118.60657 0.0857,-1.32864"
       style="fill:none;stroke:#ffffff;stroke-width:0.15031879px;stroke-linecap:butt;stroke-linejoin:miter;stroke-opacity:0.4" />
    <path
       style="fill:none;stroke:#ffffff;stroke-width:0.15031879px;stroke-linecap:butt;stroke-linejoin:miter;stroke-opacity:0.4"
       d="m 114.73517,118.60657 0.0857,-1.32864"
       id="path1428"
       inkscape:connector-curvature="0" />
    <path
       style="fill:none;stroke:#ffffff;stroke-width:0.15031879px;stroke-linecap:butt;stroke-linejoin:miter;stroke-opacity:0.4"
       d="m 108.14123,120.02603 -0.0857,-1.32864"
       id="path933"
       inkscape:connector-curvature="0" />
    <path
       style="opacity:1;fill:#ffffff;fill-opacity:0.33888891;stroke:none;stroke-width:0.14203352;stroke-linecap:round;stroke-linejoin:round;stroke-miterlimit:4;stroke-dasharray:none;stroke-dashoffset:0;stroke-opacity:1;paint-order:stroke markers fill"
       d="m 109.33488,128.54997 c -1.97154,3.13026 -0.94783,5.18599 -3.38591,5.18599 -2.43806,0 -4.41452,-2.39861 -4.41452,-5.35743 0,-2.95883 1.97646,-5.35743 4.41452,-5.35743 2.43808,0 4.96276,3.02523 3.38591,5.52887 z"
       id="path951"
       inkscape:connector-curvature="0"
       sodipodi:nodetypes="sssss" />
  </g>
</svg>
