<?xml version="1.0" encoding="UTF-8" standalone="no"?>
<!-- Created with Inkscape (http://www.inkscape.org/) -->

<svg
   xmlns:dc="http://purl.org/dc/elements/1.1/"
   xmlns:cc="http://creativecommons.org/ns#"
   xmlns:rdf="http://www.w3.org/1999/02/22-rdf-syntax-ns#"
   xmlns:svg="http://www.w3.org/2000/svg"
   xmlns="http://www.w3.org/2000/svg"
   xmlns:sodipodi="http://sodipodi.sourceforge.net/DTD/sodipodi-0.dtd"
   xmlns:inkscape="http://www.inkscape.org/namespaces/inkscape"
   width="126.54344"
   height="113.69322"
   viewBox="0 0 33.481286 30.081331"
   version="1.1"
   id="svg8"
   sodipodi:docname="Strawberry.svg"
   inkscape:version="0.92.3 (unknown)">
  <defs
     id="defs2" />
  <sodipodi:namedview
     id="base"
     pagecolor="#ffffff"
     bordercolor="#666666"
     borderopacity="1.0"
     inkscape:pageopacity="0.0"
     inkscape:pageshadow="2"
     inkscape:zoom="1.4"
     inkscape:cx="51.980359"
     inkscape:cy="69.403433"
     inkscape:document-units="px"
     inkscape:current-layer="layer1"
     showgrid="false"
     inkscape:window-width="1024"
     inkscape:window-height="573"
     inkscape:window-x="0"
     inkscape:window-y="0"
     inkscape:window-maximized="1"
     fit-margin-top="0"
     fit-margin-left="0"
     fit-margin-right="0"
     fit-margin-bottom="0"
     showguides="true"
     inkscape:guide-bbox="true"
     units="px" />
  <metadata
     id="metadata5">
    <rdf:RDF>
      <cc:Work
         rdf:about="">
        <dc:format>image/svg+xml</dc:format>
        <dc:type
           rdf:resource="http://purl.org/dc/dcmitype/StillImage" />
        <dc:title></dc:title>
      </cc:Work>
    </rdf:RDF>
  </metadata>
  <g
     inkscape:label="Capa 1"
     inkscape:groupmode="layer"
     id="layer1"
     transform="translate(-81.344256,-130.55221)">
    <path
       style="opacity:1;fill:none;fill-opacity:1;stroke:#f3e9e9;stroke-width:1.34750009;stroke-linecap:round;stroke-linejoin:round;stroke-miterlimit:4;stroke-dasharray:none;stroke-dashoffset:0;stroke-opacity:1;paint-order:stroke markers fill"
       d="m 106.01303,132.58551 c 0,0 -2.16689,4.88154 -1.67735,5.75374 -0.99279,-1.47168 -2.59379,-1.07353 -2.61955,-1.66523 -0.026,-0.59893 -0.54665,-0.83324 -0.54665,-0.83324 -0.15626,0.75518 0.67684,2.42176 1.01538,2.89051 0.33852,0.46872 -2.10929,0.59893 -2.42178,0.10417 -0.651003,-0.052 -1.432246,-0.88538 -1.14581,-0.23436 0.200518,0.4557 0.733206,1.19066 1.39176,1.61831 -1.019212,0.73281 -1.863603,1.66566 -2.369552,2.71668 -1.34123,-0.61362 -2.979918,-0.58626 -4.537058,-0.10647 0.08598,-0.77901 -0.164346,-1.65832 -0.399073,-2.09205 -0.326153,-0.60264 -0.155669,0.4921 -0.503536,1.03001 0.191424,0.53191 -1.365368,2.36447 -1.521426,1.82744 -0.156069,-0.53704 -0.931193,-2.15785 -1.600401,-2.47602 0,0 -0.131413,0.54271 0.310047,0.91194 0.436103,0.36481 -0.821062,1.3811 -0.289351,3.0126 -0.373909,-0.88972 -5.386569,-2.04431 -5.387954,-2.04464 0,0 -0.62922,1.03028 0.451818,0.89153 1.081032,-0.13878 4.496614,2.01937 4.134171,1.99973 -0.362462,-0.0197 -0.912139,1.07109 -1.448023,1.69043 -0.535874,0.61937 -1.721801,1.22494 -1.374869,1.26488 0.346941,0.04 0.864119,0.1455 1.17809,0.0637 0.313998,-0.0816 0.720491,0.003 0.720491,0.003 0,0 8.25e-4,0.15613 8.25e-4,0.17836 -0.551835,2.91218 0.37826,6.08608 3.190699,7.22044 6.677776,2.69337 11.042872,2.76187 12.824562,1.47853 0.5897,0.40508 1.16149,0.57433 1.72375,0.54919 2.22992,-0.0998 5.20433,-3.7335 7.34177,-11.66287 0.78751,-2.92143 -1.01716,-5.59557 -3.54914,-7.03072 -0.10421,-0.082 -0.36633,-0.28986 -0.36633,-0.28986 0,0 0.18235,-0.39057 0.44275,-0.59888 0.26042,-0.20833 0.49481,-0.70315 0.67709,-1.01563 0.18226,-0.31249 -1.04155,0.28645 -1.87488,0.33854 -0.83329,0.052 -2.0573,-0.18233 -2.26562,0.13016 -0.20833,0.31249 0.15623,-3.87989 0.93744,-4.68716 0.78123,-0.80726 -0.44247,-0.93765 -0.44247,-0.93765 z m -13.101822,10.30693 c -0.05074,0.0169 -0.101767,0.0337 -0.152372,0.0516 0.05058,-0.0179 0.101531,-0.0347 0.152372,-0.0516 z m -0.342325,0.12183 c -0.05312,0.0201 -0.10595,0.0405 -0.158669,0.0615 0.05277,-0.0211 0.105626,-0.0414 0.158669,-0.0615 z m -0.331226,0.13273 c -0.06162,0.0261 -0.122811,0.0535 -0.183903,0.0811 0.06103,-0.0276 0.122268,-0.0548 0.183903,-0.0811 z m -0.335772,0.15008 c -0.07709,0.0364 -0.153299,0.0748 -0.229314,0.11328 0.07607,-0.0387 0.152244,-0.0769 0.229314,-0.11328 z m -0.410693,0.20787 c -0.07529,0.0404 -0.150407,0.0811 -0.224528,0.12361 0.07419,-0.0424 0.149176,-0.0832 0.224528,-0.12361 z m -0.368306,0.20864 c -0.06018,0.0359 -0.120347,0.0721 -0.179629,0.10948 0.05925,-0.0373 0.119361,-0.0734 0.179629,-0.10948 z m -0.319626,0.19954 c -0.05755,0.0377 -0.114295,0.0763 -0.17078,0.1153 0.05652,-0.0388 0.113242,-0.0777 0.17078,-0.1153 z m -0.306765,0.20989 c -0.06289,0.045 -0.124477,0.0913 -0.185917,0.13798 0.06144,-0.0465 0.12305,-0.093 0.185917,-0.13798 z m -0.289843,0.21642 c -0.09287,0.0727 -0.184047,0.14699 -0.273221,0.22301 0.08918,-0.0761 0.180335,-0.15034 0.273221,-0.22301 z m -0.365052,0.30425 c -0.06153,0.0542 -0.122582,0.10857 -0.182126,0.16423 0.05948,-0.0557 0.120584,-0.11013 0.182126,-0.16423 z m -0.28177,0.25984 c -0.05533,0.0537 -0.109774,0.10799 -0.163225,0.16298 0.05346,-0.0549 0.107828,-0.10935 0.163225,-0.16298 z m -0.256323,0.26009 c -0.05593,0.0597 -0.110369,0.12023 -0.163956,0.18137 0.05363,-0.0612 0.108023,-0.12173 0.163956,-0.18137 z m -0.23788,0.26538 c -0.07709,0.0908 -0.151982,0.18256 -0.223508,0.27624 -0.06936,0.0909 -0.136131,0.18432 -0.20131,0.279 0.06511,-0.0947 0.131914,-0.18814 0.20131,-0.279 0.07156,-0.0937 0.146464,-0.18552 0.223508,-0.27624 z m -0.461644,0.60897 c -0.06144,0.091 -0.120866,0.18367 -0.178362,0.27775 0.05746,-0.0941 0.11698,-0.18677 0.178362,-0.27775 z m -0.216455,0.34132 c -0.05439,0.091 -0.106973,0.18298 -0.157679,0.27649 0.05058,-0.0936 0.103422,-0.18555 0.157679,-0.27649 z m -0.19475,0.34688 c -0.04004,0.0754 -0.07845,0.15178 -0.116038,0.22881 0.03748,-0.0771 0.07615,-0.15329 0.116038,-0.22881 z m -0.171546,0.34409 c -0.03843,0.0821 -0.07521,0.16498 -0.110997,0.24849 0.03561,-0.0835 0.07275,-0.16639 0.110997,-0.24849 z m -0.174579,0.40186 c -0.01972,0.0489 -0.03851,0.0979 -0.05729,0.14708 0.01878,-0.0492 0.03757,-0.0983 0.05729,-0.14708 z m -0.162196,0.43794 c -0.0086,0.0227 -0.01564,0.0456 -0.0232,0.0685 0.0068,-0.0229 0.01547,-0.0456 0.0232,-0.0685 z"
       id="path1241"
       inkscape:connector-curvature="0" />
    <path
       style="opacity:1;fill:#e01d25;fill-opacity:1;stroke:none;stroke-width:0.64043838;stroke-linecap:round;stroke-linejoin:round;stroke-miterlimit:4;stroke-dasharray:none;stroke-dashoffset:0;stroke-opacity:1;paint-order:stroke markers fill"
       d="m 90.867647,155.87932 c 7.026766,2.83414 11.386643,2.64048 12.733753,1.02781 1.35675,-1.62421 0.53373,-5.09641 -4.131914,-12.29195 -2.256221,-3.47965 -7.879093,-2.02481 -10.254426,1.08568 -2.375335,3.11051 -2.189955,8.62863 1.652587,10.17846 z"
       id="path1121"
       inkscape:connector-curvature="0"
       sodipodi:nodetypes="sssss" />
    <path
       style="fill:#47b049;fill-opacity:1;stroke:none;stroke-width:0.12028328px;stroke-linecap:butt;stroke-linejoin:miter;stroke-opacity:1"
       d="m 84.290621,143.10359 c 0,0 4.81199,1.10824 5.170845,1.96215 -0.51025,-1.56564 0.696035,-2.54089 0.277517,-2.89097 -0.423636,-0.35436 -0.297548,-0.87509 -0.297548,-0.87509 0.642185,0.30532 1.386224,1.86062 1.535977,2.37598 0.149769,0.51536 1.643702,-1.2433 1.459998,-1.75372 0.333829,-0.51621 0.170105,-1.56664 0.483085,-0.98834 0.225261,0.41624 0.465532,1.26013 0.382998,2.00769 -1.604236,0.4943 -3.117564,1.48825 -4.088391,2.75954 -0.70697,0.92579 -1.185036,2.06517 -1.409421,3.24939 7.4e-5,-0.0213 -8.26e-4,-0.17118 -8.26e-4,-0.17118 0,0 -0.390114,-0.0821 -0.691419,-0.003 -0.301313,0.0784 -0.797527,-0.0229 -1.130463,-0.0613 -0.332937,-0.0383 0.80499,-0.61932 1.319228,-1.2137 0.514254,-0.59435 1.041843,-1.64101 1.389663,-1.62217 0.347823,0.0188 -2.929924,-2.05238 -3.967326,-1.91921 -1.037394,0.13316 -0.433553,-0.85553 -0.433553,-0.85553 z"
       id="path1125"
       inkscape:connector-curvature="0" />
    <path
       style="opacity:1;fill:#ed9073;fill-opacity:1;stroke:none;stroke-width:0.66892451;stroke-linecap:round;stroke-linejoin:round;stroke-miterlimit:4;stroke-dasharray:none;stroke-dashoffset:0;stroke-opacity:1;paint-order:stroke markers fill"
       d="m 93.87694,152.45658 c 2.928252,2.23616 7.03685,3.65944 8.34531,3.37644 -0.65257,-1.78053 -2.356293,-5.14835 -5.284561,-7.38451 -2.928254,-2.23615 -5.987244,-3.15169 -6.832445,-2.04487 -0.845217,1.10678 0.843435,3.81678 3.771696,6.05294 z"
       id="path1220"
       inkscape:connector-curvature="0"
       sodipodi:nodetypes="scscs" />
    <path
       style="opacity:1;fill:#eb5640;fill-opacity:1;stroke:none;stroke-width:0.51363856;stroke-linecap:round;stroke-linejoin:round;stroke-miterlimit:4;stroke-dasharray:none;stroke-dashoffset:0;stroke-opacity:1;paint-order:stroke markers fill"
       d="m 94.92609,152.52126 c 2.248484,1.71704 5.40329,2.80991 6.40802,2.59263 -0.50107,-1.36722 -1.809304,-3.95323 -4.057796,-5.67028 -2.248475,-1.71703 -4.597353,-2.42003 -5.246349,-1.57017 -0.648997,0.84986 0.647642,2.93077 2.896125,4.64782 z"
       id="path1461"
       inkscape:connector-curvature="0"
       sodipodi:nodetypes="scscs" />
    <path
       style="opacity:1;fill:#eb5640;fill-opacity:1;stroke:none;stroke-width:0.51363856;stroke-linecap:round;stroke-linejoin:round;stroke-miterlimit:4;stroke-dasharray:none;stroke-dashoffset:0;stroke-opacity:1;paint-order:stroke markers fill"
       d="m 94.92609,152.52126 c 2.248484,1.71704 5.40329,2.80991 6.40802,2.59263 -0.50107,-1.36722 -1.809304,-3.95323 -4.057796,-5.67028 -2.248475,-1.71703 -4.597353,-2.42003 -5.246349,-1.57017 -0.648997,0.84986 0.647642,2.93077 2.896125,4.64782 z"
       id="path1463"
       inkscape:connector-curvature="0"
       sodipodi:nodetypes="scscs" />
    <path
       sodipodi:nodetypes="scscs"
       inkscape:connector-curvature="0"
       id="path1225"
       d="m 92.822694,149.03416 c -0.627595,-0.47926 -1.153731,-1.24844 -1.169055,-1.53497 0.404976,0.0345 1.197458,0.19668 1.825062,0.67593 0.627594,0.47928 0.989521,1.06011 0.808367,1.29732 -0.181144,0.23721 -0.836762,0.041 -1.464374,-0.43828 z"
       style="opacity:1;fill:#ed9073;fill-opacity:1;stroke:none;stroke-width:0.1433679;stroke-linecap:round;stroke-linejoin:round;stroke-miterlimit:4;stroke-dasharray:none;stroke-dashoffset:0;stroke-opacity:1;paint-order:stroke markers fill" />
    <path
       sodipodi:nodetypes="sssss"
       inkscape:connector-curvature="0"
       id="path1213"
       d="m 111.87417,146.63292 c -2.05117,7.60937 -4.90537,11.0965 -7.0453,11.19219 -2.15521,0.0964 -4.45903,-2.7802 -7.402003,-11.19219 -1.423173,-4.06788 3.234133,-7.80331 7.223653,-7.80331 3.9895,0 8.34531,3.64218 7.22365,7.80331 z"
       style="opacity:1;fill:#e01d25;fill-opacity:1;stroke:none;stroke-width:0.65995276;stroke-linecap:round;stroke-linejoin:round;stroke-miterlimit:4;stroke-dasharray:none;stroke-dashoffset:0;stroke-opacity:1;paint-order:stroke markers fill" />
    <path
       sodipodi:nodetypes="csccccssscccccccccccccccsccc"
       inkscape:connector-curvature="0"
       id="path1215"
       d="m 103.39389,141.35721 c 0,0 -1.04956,0.97461 -0.69971,2.17408 0.34985,1.19951 0.89962,1.34945 0.89962,1.34945 0,0 -0.14994,-0.39982 -0.0499,-0.82465 0.1,-0.42484 1.09953,-1.34945 1.4244,-1.9242 0.32488,-0.57476 1.27445,0.82465 1.97416,0.97458 0.64975,0.0499 2.49897,0.54979 1.89922,0 -0.59975,-0.54976 -0.99958,-1.09954 -1.32445,-1.59932 -0.32486,-0.49979 -0.34985,-0.19992 0.89964,-0.0499 1.24947,0.14994 1.59932,0.59975 1.99916,0.77468 0.39982,0.17493 0.1,-0.59976 -0.12493,-0.84967 -0.22493,-0.24989 -2.17412,-1.77424 -2.17412,-1.77424 0,0 0.17493,-0.37485 0.42483,-0.57477 0.2499,-0.19992 0.4748,-0.67472 0.64973,-0.97459 0.17494,-0.29988 -0.99958,0.27489 -1.79926,0.32486 -0.79966,0.0499 -1.97418,-0.17493 -2.17409,0.12493 -0.19992,0.2999 0.14994,-3.72342 0.89963,-4.49811 0.74968,-0.77467 -0.42482,-0.89963 -0.42482,-0.89963 0,0 -2.1741,4.89797 -1.57435,5.57269 -0.94961,-1.47438 -2.52393,-1.07454 -2.54895,-1.6493 -0.025,-0.57478 -0.52477,-0.79967 -0.52477,-0.79967 -0.14993,0.7247 0.64973,2.32401 0.9746,2.77384 0.32486,0.44981 -2.024157,0.57474 -2.324039,0.1 -0.624731,-0.0499 -1.374427,-0.84966 -1.099542,-0.22491 0.274891,0.62473 1.199506,1.79926 2.199081,1.87422 0.99959,0.075 -0.924585,0.4498 -1.274459,1.47439 -0.349862,1.02456 -0.14995,1.64931 0.549769,0.79965 1.17451,-0.27488 3.32361,-1.67429 3.32361,-1.67429 z"
       style="fill:#47b049;fill-opacity:1;stroke:none;stroke-width:0.12394835px;stroke-linecap:butt;stroke-linejoin:miter;stroke-opacity:1" />
    <path
       sodipodi:nodetypes="scscs"
       inkscape:connector-curvature="0"
       id="path1130"
       d="m 99.596227,145.43364 c 0,0.27603 -0.181681,0.45562 -0.24321,0.66765 -0.158721,-0.19437 -0.331558,-0.39162 -0.331558,-0.66765 0,-0.27603 0.128665,-0.49979 0.287376,-0.49979 0.158719,0 0.287392,0.22376 0.287392,0.49979 z"
       style="opacity:1;fill:#ffffff;fill-opacity:1;stroke:none;stroke-width:0.73970819;stroke-linecap:round;stroke-linejoin:round;stroke-miterlimit:4;stroke-dasharray:none;stroke-dashoffset:0;stroke-opacity:1;paint-order:stroke markers fill" />
    <path
       style="opacity:1;fill:#ffffff;fill-opacity:1;stroke:none;stroke-width:0.73970819;stroke-linecap:round;stroke-linejoin:round;stroke-miterlimit:4;stroke-dasharray:none;stroke-dashoffset:0;stroke-opacity:1;paint-order:stroke markers fill"
       d="m 110.51648,144.86821 c 0,0.276 -0.18169,0.4556 -0.24322,0.66764 -0.15871,-0.19437 -0.33155,-0.39164 -0.33155,-0.66764 0,-0.27604 0.12866,-0.49982 0.28738,-0.49982 0.15872,0 0.28739,0.22378 0.28739,0.49982 z"
       id="path1183"
       inkscape:connector-curvature="0"
       sodipodi:nodetypes="scscs" />
    <path
       style="opacity:1;fill:#ffffff;fill-opacity:1;stroke:none;stroke-width:0.73970819;stroke-linecap:round;stroke-linejoin:round;stroke-miterlimit:4;stroke-dasharray:none;stroke-dashoffset:0;stroke-opacity:1;paint-order:stroke markers fill"
       d="m 106.38161,145.575 c 0,0.27604 -0.18166,0.45563 -0.2432,0.66766 -0.15871,-0.19437 -0.33154,-0.39162 -0.33154,-0.66766 0,-0.27602 0.12865,-0.49979 0.28737,-0.49979 0.15871,0 0.28737,0.22377 0.28737,0.49979 z"
       id="path1185"
       inkscape:connector-curvature="0"
       sodipodi:nodetypes="scscs" />
    <path
       style="opacity:1;fill:#ffffff;fill-opacity:1;stroke:none;stroke-width:0.73970819;stroke-linecap:round;stroke-linejoin:round;stroke-miterlimit:4;stroke-dasharray:none;stroke-dashoffset:0;stroke-opacity:1;paint-order:stroke markers fill"
       d="m 102.56483,145.71636 c 0,0.27604 -0.18169,0.45563 -0.2432,0.66766 -0.15872,-0.19437 -0.33155,-0.39162 -0.33155,-0.66766 0,-0.27602 0.12864,-0.4998 0.28738,-0.4998 0.15871,0 0.28737,0.22378 0.28737,0.4998 z"
       id="path1187"
       inkscape:connector-curvature="0"
       sodipodi:nodetypes="scscs" />
    <path
       style="opacity:1;fill:#ffffff;fill-opacity:1;stroke:none;stroke-width:0.73970819;stroke-linecap:round;stroke-linejoin:round;stroke-miterlimit:4;stroke-dasharray:none;stroke-dashoffset:0;stroke-opacity:1;paint-order:stroke markers fill"
       d="m 99.596227,148.61429 c 0,0.27603 -0.181681,0.45563 -0.24321,0.66767 -0.158721,-0.19437 -0.331558,-0.39164 -0.331558,-0.66767 0,-0.27603 0.128665,-0.4998 0.287376,-0.4998 0.158719,0 0.287392,0.22377 0.287392,0.4998 z"
       id="path1189"
       inkscape:connector-curvature="0"
       sodipodi:nodetypes="scscs" />
    <path
       style="opacity:1;fill:#ffffff;fill-opacity:1;stroke:none;stroke-width:0.73970819;stroke-linecap:round;stroke-linejoin:round;stroke-miterlimit:4;stroke-dasharray:none;stroke-dashoffset:0;stroke-opacity:1;paint-order:stroke markers fill"
       d="m 104.19052,148.43759 c 0,0.27603 -0.1817,0.45561 -0.24323,0.66767 -0.15871,-0.19439 -0.33154,-0.39164 -0.33154,-0.66767 0,-0.27602 0.12866,-0.49978 0.28737,-0.49978 0.15871,0 0.2874,0.22376 0.2874,0.49978 z"
       id="path1191"
       inkscape:connector-curvature="0"
       sodipodi:nodetypes="scscs" />
    <path
       style="opacity:1;fill:#ffffff;fill-opacity:1;stroke:none;stroke-width:0.73970819;stroke-linecap:round;stroke-linejoin:round;stroke-miterlimit:4;stroke-dasharray:none;stroke-dashoffset:0;stroke-opacity:1;paint-order:stroke markers fill"
       d="m 108.50206,148.01352 c 0,0.27602 -0.18169,0.4556 -0.24321,0.66764 -0.15873,-0.19438 -0.33155,-0.39162 -0.33155,-0.66764 0,-0.27604 0.12865,-0.49981 0.28738,-0.49981 0.15871,0 0.28738,0.22377 0.28738,0.49981 z"
       id="path1193"
       inkscape:connector-curvature="0"
       sodipodi:nodetypes="scscs" />
    <path
       style="opacity:1;fill:#ffffff;fill-opacity:1;stroke:none;stroke-width:0.73970819;stroke-linecap:round;stroke-linejoin:round;stroke-miterlimit:4;stroke-dasharray:none;stroke-dashoffset:0;stroke-opacity:1;paint-order:stroke markers fill"
       d="m 111.3293,147.51873 c 0,0.27604 -0.18167,0.45563 -0.2432,0.66767 -0.15871,-0.19438 -0.33155,-0.39163 -0.33155,-0.66767 0,-0.27602 0.12867,-0.49978 0.28737,-0.49978 0.15872,0 0.28738,0.22376 0.28738,0.49978 z"
       id="path1195"
       inkscape:connector-curvature="0"
       sodipodi:nodetypes="scscs" />
    <path
       style="opacity:1;fill:#ffffff;fill-opacity:1;stroke:none;stroke-width:0.73970819;stroke-linecap:round;stroke-linejoin:round;stroke-miterlimit:4;stroke-dasharray:none;stroke-dashoffset:0;stroke-opacity:1;paint-order:stroke markers fill"
       d="m 109.24422,150.48735 c 0,0.27603 -0.18169,0.45562 -0.24322,0.66767 -0.1587,-0.19438 -0.33156,-0.39164 -0.33156,-0.66767 0,-0.27602 0.12867,-0.49978 0.28739,-0.49978 0.15872,0 0.28739,0.22376 0.28739,0.49978 z"
       id="path1197"
       inkscape:connector-curvature="0"
       sodipodi:nodetypes="scscs" />
    <path
       style="opacity:1;fill:#ffffff;fill-opacity:1;stroke:none;stroke-width:0.73970819;stroke-linecap:round;stroke-linejoin:round;stroke-miterlimit:4;stroke-dasharray:none;stroke-dashoffset:0;stroke-opacity:1;paint-order:stroke markers fill"
       d="m 105.99287,150.73474 c 0,0.27602 -0.18167,0.45561 -0.2432,0.66766 -0.15872,-0.19438 -0.33157,-0.39164 -0.33157,-0.66766 0,-0.27603 0.12868,-0.49979 0.28739,-0.49979 0.15872,0 0.28738,0.22376 0.28738,0.49979 z"
       id="path1199"
       inkscape:connector-curvature="0"
       sodipodi:nodetypes="scscs" />
    <path
       style="opacity:1;fill:#ffffff;fill-opacity:1;stroke:none;stroke-width:0.73970819;stroke-linecap:round;stroke-linejoin:round;stroke-miterlimit:4;stroke-dasharray:none;stroke-dashoffset:0;stroke-opacity:1;paint-order:stroke markers fill"
       d="m 101.00985,150.41667 c 0,0.27603 -0.18168,0.45563 -0.24321,0.66766 -0.15871,-0.19437 -0.33156,-0.39163 -0.33156,-0.66766 0,-0.27602 0.12867,-0.4998 0.28738,-0.4998 0.15873,0 0.28739,0.22378 0.28739,0.4998 z"
       id="path1201"
       inkscape:connector-curvature="0"
       sodipodi:nodetypes="scscs" />
    <path
       style="opacity:1;fill:#ffffff;fill-opacity:1;stroke:none;stroke-width:0.73970819;stroke-linecap:round;stroke-linejoin:round;stroke-miterlimit:4;stroke-dasharray:none;stroke-dashoffset:0;stroke-opacity:1;paint-order:stroke markers fill"
       d="m 103.34232,152.3604 c 0,0.27603 -0.18168,0.45563 -0.2432,0.66767 -0.15871,-0.19438 -0.33154,-0.39164 -0.33154,-0.66767 0,-0.27603 0.12865,-0.49979 0.28737,-0.49979 0.15871,0 0.28737,0.22376 0.28737,0.49979 z"
       id="path1203"
       inkscape:connector-curvature="0"
       sodipodi:nodetypes="scscs" />
    <path
       style="opacity:1;fill:#ffffff;fill-opacity:1;stroke:none;stroke-width:0.73970819;stroke-linecap:round;stroke-linejoin:round;stroke-miterlimit:4;stroke-dasharray:none;stroke-dashoffset:0;stroke-opacity:1;paint-order:stroke markers fill"
       d="m 108.04262,152.74916 c 0,0.27601 -0.18166,0.4556 -0.2432,0.66764 -0.15871,-0.19437 -0.33157,-0.39163 -0.33157,-0.66764 0,-0.27604 0.12869,-0.4998 0.28739,-0.4998 0.15872,0 0.28738,0.22376 0.28738,0.4998 z"
       id="path1205"
       inkscape:connector-curvature="0"
       sodipodi:nodetypes="scscs" />
    <path
       style="opacity:1;fill:#ffffff;fill-opacity:1;stroke:none;stroke-width:0.73970819;stroke-linecap:round;stroke-linejoin:round;stroke-miterlimit:4;stroke-dasharray:none;stroke-dashoffset:0;stroke-opacity:1;paint-order:stroke markers fill"
       d="m 105.42743,153.91538 c 0,0.27604 -0.18168,0.45562 -0.24322,0.66767 -0.15871,-0.19437 -0.33154,-0.39163 -0.33154,-0.66767 0,-0.27601 0.12865,-0.49978 0.28737,-0.49978 0.15872,0 0.28739,0.22377 0.28739,0.49978 z"
       id="path1207"
       inkscape:connector-curvature="0"
       sodipodi:nodetypes="scscs" />
    <path
       style="opacity:1;fill:#ffffff;fill-opacity:1;stroke:none;stroke-width:0.73970819;stroke-linecap:round;stroke-linejoin:round;stroke-miterlimit:4;stroke-dasharray:none;stroke-dashoffset:0;stroke-opacity:1;paint-order:stroke markers fill"
       d="m 102.56483,154.33947 c 0,0.27603 -0.18169,0.45562 -0.2432,0.66766 -0.15872,-0.19436 -0.33155,-0.39163 -0.33155,-0.66766 0,-0.27603 0.12864,-0.49977 0.28738,-0.49977 0.15871,0 0.28737,0.22374 0.28737,0.49977 z"
       id="path1209"
       inkscape:connector-curvature="0"
       sodipodi:nodetypes="scscs" />
    <path
       style="opacity:1;fill:#ffffff;fill-opacity:1;stroke:none;stroke-width:0.73970819;stroke-linecap:round;stroke-linejoin:round;stroke-miterlimit:4;stroke-dasharray:none;stroke-dashoffset:0;stroke-opacity:1;paint-order:stroke markers fill"
       d="m 107.26514,155.18764 c 0,0.27604 -0.18168,0.45563 -0.24321,0.66767 -0.15872,-0.19437 -0.33156,-0.39163 -0.33156,-0.66767 0,-0.27602 0.12867,-0.49978 0.28737,-0.49978 0.15874,0 0.2874,0.22376 0.2874,0.49978 z"
       id="path1211"
       inkscape:connector-curvature="0"
       sodipodi:nodetypes="scscs" />
    <path
       sodipodi:nodetypes="scscs"
       inkscape:connector-curvature="0"
       id="path1141"
       d="m 104.57925,155.85912 c 0,0.27604 -0.18167,0.45562 -0.24322,0.66766 -0.1587,-0.19437 -0.33155,-0.39162 -0.33155,-0.66766 0,-0.27602 0.12866,-0.4998 0.28738,-0.4998 0.15873,0 0.28739,0.22378 0.28739,0.4998 z"
       style="opacity:1;fill:#ffffff;fill-opacity:1;stroke:none;stroke-width:0.73970819;stroke-linecap:round;stroke-linejoin:round;stroke-miterlimit:4;stroke-dasharray:none;stroke-dashoffset:0;stroke-opacity:1;paint-order:stroke markers fill" />
  </g>
</svg>
