<?xml version="1.0" encoding="UTF-8" standalone="no"?>
<!-- Created with Inkscape (http://www.inkscape.org/) -->

<svg
   xmlns:dc="http://purl.org/dc/elements/1.1/"
   xmlns:cc="http://creativecommons.org/ns#"
   xmlns:rdf="http://www.w3.org/1999/02/22-rdf-syntax-ns#"
   xmlns:svg="http://www.w3.org/2000/svg"
   xmlns="http://www.w3.org/2000/svg"
   xmlns:sodipodi="http://sodipodi.sourceforge.net/DTD/sodipodi-0.dtd"
   xmlns:inkscape="http://www.inkscape.org/namespaces/inkscape"
   width="171.31662"
   height="208.00545"
   viewBox="0 0 45.327523 55.034775"
   version="1.1"
   id="svg11915"
   inkscape:version="0.92.3 (unknown)"
   sodipodi:docname="Cherry.svg">
  <defs
     id="defs11909" />
  <sodipodi:namedview
     id="base"
     pagecolor="#ffffff"
     bordercolor="#666666"
     borderopacity="1.0"
     inkscape:pageopacity="0.0"
     inkscape:pageshadow="2"
     inkscape:zoom="0.98994949"
     inkscape:cx="197.38906"
     inkscape:cy="84.442852"
     inkscape:document-units="px"
     inkscape:current-layer="layer1"
     showgrid="false"
     inkscape:window-width="1024"
     inkscape:window-height="573"
     inkscape:window-x="0"
     inkscape:window-y="0"
     inkscape:window-maximized="1"
     inkscape:snap-global="false"
     fit-margin-top="0"
     fit-margin-left="0"
     fit-margin-right="0"
     fit-margin-bottom="0"
     units="cm" />
  <metadata
     id="metadata11912">
    <rdf:RDF>
      <cc:Work
         rdf:about="">
        <dc:format>image/svg+xml</dc:format>
        <dc:type
           rdf:resource="http://purl.org/dc/dcmitype/StillImage" />
        <dc:title></dc:title>
      </cc:Work>
    </rdf:RDF>
  </metadata>
  <g
     inkscape:label="Capa 1"
     inkscape:groupmode="layer"
     id="layer1"
     transform="translate(-78.460804,-116.079)">
    <path
       style="opacity:1;fill:#f3e9e9;fill-opacity:1;stroke:#f3e9e9;stroke-width:3.53742766;stroke-linecap:round;stroke-linejoin:round;stroke-miterlimit:4;stroke-dasharray:none;stroke-dashoffset:0;stroke-opacity:1;paint-order:stroke markers fill"
       d="m 101.01713,119.15056 c -0.33079,-0.0105 -0.51543,0.076 -0.48475,0.28706 0.14448,0.99708 0.38014,3.07599 1.02271,4.91993 -2.727775,0.34265 -5.980234,1.5392 -5.335874,2.1065 1.104166,0.97207 3.829974,3.55422 6.313084,4.11315 0.62145,0.13998 3.40612,-1.30891 3.98161,-1.34519 -1.55171,1.1221 -3.03154,2.34698 -3.9114,3.47028 -1.937,2.47299 -5.820413,8.89065 -6.765085,11.96687 -0.8228,-0.17368 -1.661881,-0.26214 -2.503472,-0.26391 -6.647065,1.5e-4 -12.035475,5.29259 -12.035357,11.82105 5e-5,6.52832 5.388411,11.8206 12.035357,11.82073 3.874514,-0.003 7.510117,-1.8398 9.767987,-4.93224 1.95177,1.57555 4.39926,2.43787 6.9257,2.44009 6.03253,1.2e-4 10.92292,-4.80292 10.92289,-10.72781 0,-5.92488 -4.89036,-10.7279 -10.92289,-10.7278 -1.04092,9.6e-4 -2.07617,0.15089 -3.07432,0.44096 -0.39469,-2.48349 -0.82063,-6.02334 -0.48075,-8.22274 0.5156,-3.33667 3.91629,-9.41456 3.91629,-9.41456 0,0 -1.11418,0.61175 -2.62182,1.54378 0.003,-0.0105 0.006,-0.0266 0.008,-0.0392 0.0978,-0.0527 0.19276,-0.1122 0.2834,-0.17947 1.4356,-1.0622 1.35282,-3.53395 -0.18472,-5.52081 -1.24925,-1.61431 -5.42289,-3.50766 -6.85628,-3.55649 z m -1.159216,29.10572 1.818606,-0.19407 0.73081,0.0542 0.72779,0.0712 c -0.12841,0.12856 -1.30992,0.0636 -1.43153,0.19852 -0.14267,-0.13727 -1.00493,-0.27109 -1.15451,-0.40124 z"
       id="ellipse1007"
       inkscape:connector-curvature="0"
       sodipodi:nodetypes="ccccccccccccccccccccccccccccccc" />
    <ellipse
       ry="10.224554"
       rx="10.179425"
       cy="154.45764"
       cx="109.42193"
       id="ellipse971"
       style="opacity:1;fill:#b40303;fill-opacity:1;stroke:none;stroke-width:0.8852194;stroke-linecap:round;stroke-linejoin:round;stroke-miterlimit:4;stroke-dasharray:none;stroke-dashoffset:0;stroke-opacity:1;paint-order:stroke markers fill" />
    <ellipse
       style="opacity:1;fill:#b40303;fill-opacity:1;stroke:none;stroke-width:0.97541422;stroke-linecap:round;stroke-linejoin:round;stroke-miterlimit:4;stroke-dasharray:none;stroke-dashoffset:0;stroke-opacity:1;paint-order:stroke markers fill"
       id="path969"
       cx="93.864197"
       cy="155.79115"
       rx="11.216605"
       ry="11.266333" />
    <path
       sodipodi:nodetypes="sssss"
       inkscape:connector-curvature="0"
       id="path976"
       d="m 88.077728,153.57171 c -0.78526,2.71177 -0.941957,4.74569 -2.081688,4.41567 -1.139728,-0.33006 -1.42708,-2.79592 -0.641822,-5.50768 0.785261,-2.71178 2.345773,-4.64253 3.485502,-4.31252 1.139729,0.33006 0.02327,2.69276 -0.761992,5.40453 z"
       style="opacity:1;fill:#f4c3c4;fill-opacity:1;stroke:none;stroke-width:0.87209731;stroke-linecap:round;stroke-linejoin:round;stroke-miterlimit:4;stroke-dasharray:none;stroke-dashoffset:0;stroke-opacity:1;paint-order:stroke markers fill" />
    <path
       style="opacity:1;fill:#f4c3c4;fill-opacity:1;stroke:none;stroke-width:0.62373793;stroke-linecap:round;stroke-linejoin:round;stroke-miterlimit:4;stroke-dasharray:none;stroke-dashoffset:0;stroke-opacity:1;paint-order:stroke markers fill"
       d="m 114.40446,151.5909 c 1.00065,1.75381 1.45061,3.14169 2.1877,2.72114 0.73711,-0.42055 0.52349,-2.18321 -0.47716,-3.93704 -1.00063,-1.75378 -2.40935,-2.8346 -3.14646,-2.41403 -0.73709,0.42055 0.4353,1.87614 1.43592,3.62993 z"
       id="path973"
       inkscape:connector-curvature="0"
       sodipodi:nodetypes="sssss" />
    <ellipse
       transform="rotate(7.705447)"
       ry="0.57624042"
       rx="1.7811068"
       cy="133.42557"
       cx="114.27463"
       id="ellipse980"
       style="opacity:1;fill:#812426;fill-opacity:0.47777776;stroke:none;stroke-width:0.88700598;stroke-linecap:round;stroke-linejoin:round;stroke-miterlimit:4;stroke-dasharray:none;stroke-dashoffset:0;stroke-opacity:1;paint-order:stroke markers fill" />
    <ellipse
       style="opacity:1;fill:#812426;fill-opacity:0.47777776;stroke:none;stroke-width:0.88700598;stroke-linecap:round;stroke-linejoin:round;stroke-miterlimit:4;stroke-dasharray:none;stroke-dashoffset:0;stroke-opacity:1;paint-order:stroke markers fill"
       id="path978"
       cx="19.185513"
       cy="181.21925"
       rx="1.7811068"
       ry="0.57624042"
       transform="rotate(-29.935317)" />
    <path
       sodipodi:nodetypes="sssss"
       inkscape:connector-curvature="0"
       id="path1026"
       d="m 103.79964,125.42455 c 2.31417,0.53274 3.88502,2.29003 3.50864,3.92503 -0.37638,1.635 -2.5575,2.52857 -4.87165,1.99582 -2.31414,-0.53271 -4.854669,-2.99377 -5.8837,-3.92025 -0.806101,-0.72577 4.93256,-2.53334 7.24671,-2.0006 z"
       style="opacity:1;fill:#7fcd5f;fill-opacity:1;stroke:none;stroke-width:0.49459508;stroke-linecap:round;stroke-linejoin:round;stroke-miterlimit:4;stroke-dasharray:none;stroke-dashoffset:0;stroke-opacity:1;paint-order:stroke markers fill" />
    <path
       style="opacity:1;fill:#7fcd5f;fill-opacity:1;stroke:none;stroke-width:0.49459508;stroke-linecap:round;stroke-linejoin:round;stroke-miterlimit:4;stroke-dasharray:none;stroke-dashoffset:0;stroke-opacity:1;paint-order:stroke markers fill"
       d="m 107.71435,124.10609 c 1.3417,1.95935 1.30715,4.31612 -0.0772,5.26405 -1.38429,0.94796 -3.59418,0.12811 -4.93586,-1.83125 -1.34171,-1.95932 -1.54386,-5.49063 -1.67342,-6.86921 -0.10154,-1.07992 5.34473,1.47708 6.68642,3.43641 z"
       id="path984"
       inkscape:connector-curvature="0"
       sodipodi:nodetypes="sssss" />
    <ellipse
       style="opacity:1;fill:#b40303;fill-opacity:1;stroke:none;stroke-width:0.8852194;stroke-linecap:round;stroke-linejoin:round;stroke-miterlimit:4;stroke-dasharray:none;stroke-dashoffset:0;stroke-opacity:1;paint-order:stroke markers fill"
       id="ellipse989"
       cx="109.42193"
       cy="154.45764"
       rx="10.179425"
       ry="10.224554" />
    <ellipse
       ry="11.266333"
       rx="11.216605"
       cy="155.79115"
       cx="93.864197"
       id="ellipse991"
       style="opacity:1;fill:#b40303;fill-opacity:1;stroke:none;stroke-width:0.97541422;stroke-linecap:round;stroke-linejoin:round;stroke-miterlimit:4;stroke-dasharray:none;stroke-dashoffset:0;stroke-opacity:1;paint-order:stroke markers fill" />
    <path
       style="opacity:1;fill:#f4c3c4;fill-opacity:1;stroke:none;stroke-width:0.87209731;stroke-linecap:round;stroke-linejoin:round;stroke-miterlimit:4;stroke-dasharray:none;stroke-dashoffset:0;stroke-opacity:1;paint-order:stroke markers fill"
       d="m 88.077728,153.57171 c -0.78526,2.71177 -0.941957,4.74569 -2.081688,4.41567 -1.139728,-0.33006 -1.42708,-2.79592 -0.641822,-5.50768 0.785261,-2.71178 2.345773,-4.64253 3.485502,-4.31252 1.139729,0.33006 0.02327,2.69276 -0.761992,5.40453 z"
       id="path993"
       inkscape:connector-curvature="0"
       sodipodi:nodetypes="sssss" />
    <path
       sodipodi:nodetypes="sssss"
       inkscape:connector-curvature="0"
       id="path995"
       d="m 114.40446,151.5909 c 1.00065,1.75381 1.45061,3.14169 2.1877,2.72114 0.73711,-0.42055 0.52349,-2.18321 -0.47716,-3.93704 -1.00063,-1.75378 -2.40935,-2.8346 -3.14646,-2.41403 -0.73709,0.42055 0.4353,1.87614 1.43592,3.62993 z"
       style="opacity:1;fill:#f4c3c4;fill-opacity:1;stroke:none;stroke-width:0.62373793;stroke-linecap:round;stroke-linejoin:round;stroke-miterlimit:4;stroke-dasharray:none;stroke-dashoffset:0;stroke-opacity:1;paint-order:stroke markers fill" />
    <ellipse
       style="opacity:1;fill:#812426;fill-opacity:0.47777776;stroke:none;stroke-width:0.88700598;stroke-linecap:round;stroke-linejoin:round;stroke-miterlimit:4;stroke-dasharray:none;stroke-dashoffset:0;stroke-opacity:1;paint-order:stroke markers fill"
       id="ellipse997"
       cx="114.27463"
       cy="133.42557"
       rx="1.7811068"
       ry="0.57624042"
       transform="rotate(7.705447)" />
    <ellipse
       transform="rotate(-29.935317)"
       ry="0.57624042"
       rx="1.7811068"
       cy="181.21925"
       cx="19.185513"
       id="ellipse999"
       style="opacity:1;fill:#812426;fill-opacity:0.47777776;stroke:none;stroke-width:0.88700598;stroke-linecap:round;stroke-linejoin:round;stroke-miterlimit:4;stroke-dasharray:none;stroke-dashoffset:0;stroke-opacity:1;paint-order:stroke markers fill" />
    <path
       style="fill:none;fill-opacity:1;stroke:#370101;stroke-width:0.91136801;stroke-linecap:round;stroke-linejoin:round;stroke-miterlimit:4;stroke-dasharray:none;stroke-opacity:1"
       d="m 95.474423,147.34575 c 0,0 2.324106,-8.529 4.909287,-11.98756 2.39781,-3.20788 9.37476,-7.51497 9.37476,-7.51497 0,0 -3.16939,5.79284 -3.64993,8.97295 -0.5274,3.49044 0.92462,10.54456 0.92462,10.54456 l -0.43164,0.0673"
       id="path982"
       inkscape:connector-curvature="0"
       sodipodi:nodetypes="cacacc" />
  </g>
</svg>
