<?xml version="1.0" encoding="UTF-8" standalone="no"?>
<!-- Created with Inkscape (http://www.inkscape.org/) -->

<svg
   xmlns:dc="http://purl.org/dc/elements/1.1/"
   xmlns:cc="http://creativecommons.org/ns#"
   xmlns:rdf="http://www.w3.org/1999/02/22-rdf-syntax-ns#"
   xmlns:svg="http://www.w3.org/2000/svg"
   xmlns="http://www.w3.org/2000/svg"
   xmlns:sodipodi="http://sodipodi.sourceforge.net/DTD/sodipodi-0.dtd"
   xmlns:inkscape="http://www.inkscape.org/namespaces/inkscape"
   width="135.66638"
   height="111.40436"
   viewBox="0 0 35.895064 29.475736"
   version="1.1"
   id="svg11915"
   inkscape:version="0.92.3 (unknown)"
   sodipodi:docname="Kiwi.svg">
  <defs
     id="defs11909" />
  <sodipodi:namedview
     id="base"
     pagecolor="#ffffff"
     bordercolor="#666666"
     borderopacity="1.0"
     inkscape:pageopacity="0.0"
     inkscape:pageshadow="2"
     inkscape:zoom="1.979899"
     inkscape:cx="144.39431"
     inkscape:cy="57.886457"
     inkscape:document-units="px"
     inkscape:current-layer="layer1"
     showgrid="false"
     inkscape:window-width="1024"
     inkscape:window-height="573"
     inkscape:window-x="0"
     inkscape:window-y="0"
     inkscape:window-maximized="1"
     inkscape:snap-global="false"
     fit-margin-top="0"
     fit-margin-left="0"
     fit-margin-right="0"
     fit-margin-bottom="0"
     units="px" />
  <metadata
     id="metadata11912">
    <rdf:RDF>
      <cc:Work
         rdf:about="">
        <dc:format>image/svg+xml</dc:format>
        <dc:type
           rdf:resource="http://purl.org/dc/dcmitype/StillImage" />
        <dc:title></dc:title>
      </cc:Work>
    </rdf:RDF>
  </metadata>
  <g
     inkscape:label="Capa 1"
     inkscape:groupmode="layer"
     id="layer1"
     transform="translate(-70.986889,-134.60464)">
    <path
       style="opacity:1;fill:none;fill-opacity:1;stroke:#f3e9e9;stroke-width:1.32870972;stroke-linecap:round;stroke-linejoin:round;stroke-miterlimit:4;stroke-dasharray:none;stroke-dashoffset:0;stroke-opacity:1;paint-order:stroke markers fill"
       d="m 100.71329,135.80347 -0.891263,1.22606 a 10.621546,13.876105 27.997909 0 0 -12.273694,3.77421 11.082591,11.081344 0 0 0 -4.16361,-0.81938 11.082591,11.081344 0 0 0 -11.082526,11.08129 11.082591,11.081344 0 0 0 11.082526,11.08152 11.082591,11.081344 0 0 0 3.628556,-0.62429 10.621546,13.876105 27.997909 0 0 0.529549,0.33616 10.621546,13.876105 27.997909 0 0 15.917772,-7.10973 10.621546,13.876105 27.997909 0 0 -0.30441,-15.29819 l 1.02181,-1.43614 -1.42255,0.1363 -0.30818,-1.26908 -1.25671,0.0914 z"
       id="circle1021"
       inkscape:connector-curvature="0" />
    <circle
       style="opacity:1;fill:#71481b;fill-opacity:1;stroke:none;stroke-width:0.16655512;stroke-linecap:round;stroke-linejoin:round;stroke-miterlimit:4;stroke-dasharray:none;stroke-dashoffset:0;stroke-opacity:1;paint-order:stroke markers fill"
       id="path968"
       cx="83.646889"
       cy="150.98567"
       r="10.560501" />
    <circle
       r="10.560501"
       cy="150.98567"
       cx="83.646889"
       id="circle970"
       style="opacity:1;fill:#71481b;fill-opacity:1;stroke:none;stroke-width:0.16655512;stroke-linecap:round;stroke-linejoin:round;stroke-miterlimit:4;stroke-dasharray:none;stroke-dashoffset:0;stroke-opacity:1;paint-order:stroke markers fill" />
    <circle
       style="opacity:1;fill:#7b9a2d;fill-opacity:1;stroke:none;stroke-width:0.15397748;stroke-linecap:round;stroke-linejoin:round;stroke-miterlimit:4;stroke-dasharray:none;stroke-dashoffset:0;stroke-opacity:1;paint-order:stroke markers fill"
       id="circle972"
       cx="83.646889"
       cy="150.98567"
       r="9.763011" />
    <circle
       r="9.255518"
       cy="150.98567"
       cx="83.646889"
       id="circle974"
       style="opacity:1;fill:#8bc72d;fill-opacity:1;stroke:none;stroke-width:0.14597356;stroke-linecap:round;stroke-linejoin:round;stroke-miterlimit:4;stroke-dasharray:none;stroke-dashoffset:0;stroke-opacity:1;paint-order:stroke markers fill" />
    <path
       sodipodi:type="star"
       style="opacity:1;fill:#c8dc48;fill-opacity:1;stroke:none;stroke-width:0.13562909;stroke-linecap:round;stroke-linejoin:round;stroke-miterlimit:4;stroke-dasharray:none;stroke-dashoffset:0;stroke-opacity:1;paint-order:stroke markers fill"
       id="path980"
       sodipodi:sides="17"
       sodipodi:cx="83.706245"
       sodipodi:cy="150.89278"
       sodipodi:r1="7.8704042"
       sodipodi:r2="4.1246819"
       sodipodi:arg1="0.54199928"
       sodipodi:arg2="0.72679885"
       inkscape:flatsided="false"
       inkscape:rounded="0.04"
       inkscape:randomized="0"
       d="m 90.448656,154.95272 c -0.08028,0.13332 -3.556608,-1.43547 -3.660014,-1.31917 -0.103406,0.11629 1.861107,3.38534 1.738092,3.48065 -0.123014,0.0953 -2.797886,-2.62333 -2.93632,-2.55224 -0.138434,0.0711 0.512504,3.82905 0.363365,3.87349 -0.14914,0.0444 -1.661295,-3.4569 -1.816061,-3.44062 -0.154766,0.0163 -0.905314,3.75561 -1.060436,3.74318 -0.155122,-0.0124 -0.300337,-3.82359 -0.450533,-3.86432 -0.150195,-0.0407 -2.200865,3.17497 -2.34102,3.10734 -0.140154,-0.0676 1.101184,-3.67388 0.975844,-3.76612 -0.125341,-0.0922 -3.199178,2.16553 -3.305436,2.05183 -0.106258,-0.11369 2.353983,-3.028 2.270426,-3.15928 -0.08356,-0.13129 -3.765423,0.86361 -3.823435,0.71921 -0.05801,-0.1444 3.288865,-1.97317 3.258375,-2.12577 -0.03049,-0.15261 -3.823127,-0.55493 -3.825057,-0.71054 -0.0019,-0.15561 3.779566,-0.65185 3.806262,-0.80516 0.0267,-0.15331 -3.364497,-1.89853 -3.310084,-2.04433 0.05441,-0.14579 3.759816,0.75751 3.840093,0.62419 0.08028,-0.13332 -2.451473,-2.98572 -2.348067,-3.10202 0.103407,-0.11629 3.232283,2.06456 3.355298,1.96924 0.123015,-0.0953 -1.207364,-3.66967 -1.068929,-3.74076 0.138434,-0.0711 2.268211,3.09277 2.41735,3.04833 0.14914,-0.0444 0.199807,-3.85802 0.354573,-3.8743 0.154766,-0.0163 0.997806,3.7033 1.152928,3.71574 0.155122,0.0124 1.579992,-3.52532 1.730188,-3.48459 0.150195,0.0407 -0.40736,3.81367 -0.267206,3.8813 0.140155,0.0676 2.746791,-2.7165 2.872132,-2.62427 0.12534,0.0922 -1.757509,3.40899 -1.651251,3.52269 0.106259,0.11369 3.542621,-1.54081 3.626178,-1.40953 0.08356,0.13129 -2.870296,2.5439 -2.812285,2.68831 0.05801,0.1444 3.859999,-0.15702 3.890489,-0.004 0.03049,0.1526 -3.595434,1.33525 -3.593505,1.49085 0.0019,0.15561 3.656064,1.24798 3.629368,1.40129 -0.0267,0.15332 -3.834989,-0.0537 -3.889402,0.0921 -0.05441,0.1458 2.958356,2.48443 2.87808,2.61774 z"
       inkscape:transform-center-x="0.023358688"
       inkscape:transform-center-y="0.031693589" />
    <circle
       style="opacity:1;fill:#fef7bf;fill-opacity:1;stroke:none;stroke-width:0.04733411;stroke-linecap:round;stroke-linejoin:round;stroke-miterlimit:4;stroke-dasharray:none;stroke-dashoffset:0;stroke-opacity:1;paint-order:stroke markers fill"
       id="circle976"
       cx="83.646889"
       cy="150.98567"
       r="3.001241" />
    <path
       sodipodi:nodetypes="sssss"
       inkscape:connector-curvature="0"
       id="path988"
       d="m 82.057539,144.18465 c -0.104461,-0.29866 -0.361485,-0.4805 -0.574086,-0.40615 -0.212593,0.0744 -0.300254,0.37676 -0.195799,0.67542 0.104461,0.29868 0.794998,1.29044 0.758873,1.04431 0,0 0.115473,-1.0149 0.01104,-1.31358 z"
       style="opacity:1;fill:#020504;fill-opacity:1;stroke:none;stroke-width:0.14283589;stroke-linecap:round;stroke-linejoin:round;stroke-miterlimit:4;stroke-dasharray:none;stroke-dashoffset:0;stroke-opacity:1;paint-order:stroke markers fill" />
    <path
       sodipodi:nodetypes="sssss"
       inkscape:connector-curvature="0"
       id="path990"
       d="m 79.830782,145.14456 c -0.165528,-0.26965 -0.455318,-0.39275 -0.647267,-0.27492 -0.191945,0.11782 -0.213366,0.43195 -0.04784,0.7016 0.165528,0.26966 1.050995,1.09207 0.963408,0.85923 0,0 -0.102776,-1.01625 -0.268301,-1.28591 z"
       style="opacity:1;fill:#020504;fill-opacity:1;stroke:none;stroke-width:0.14283589;stroke-linecap:round;stroke-linejoin:round;stroke-miterlimit:4;stroke-dasharray:none;stroke-dashoffset:0;stroke-opacity:1;paint-order:stroke markers fill" />
    <path
       sodipodi:nodetypes="sssss"
       inkscape:connector-curvature="0"
       id="path992"
       d="m 77.889702,146.8918 c -0.263852,-0.17463 -0.578519,-0.16395 -0.70283,0.0239 -0.124306,0.18781 -0.0112,0.48164 0.252667,0.65627 0.263849,0.17464 1.413652,0.54665 1.235993,0.3725 0,0 -0.52198,-0.878 -0.78583,-1.05264 z"
       style="opacity:1;fill:#020504;fill-opacity:1;stroke:none;stroke-width:0.14283589;stroke-linecap:round;stroke-linejoin:round;stroke-miterlimit:4;stroke-dasharray:none;stroke-dashoffset:0;stroke-opacity:1;paint-order:stroke markers fill" />
    <path
       sodipodi:nodetypes="sssss"
       inkscape:connector-curvature="0"
       id="path994"
       d="m 76.911346,149.26589 c -0.312445,-0.0499 -0.594543,0.0899 -0.630077,0.31231 -0.03552,0.22241 0.188955,0.44317 0.501392,0.4931 0.312448,0.0499 1.513177,-0.0867 1.279415,-0.17185 0,0 -0.838282,-0.58363 -1.15073,-0.63355 z"
       style="opacity:1;fill:#020504;fill-opacity:1;stroke:none;stroke-width:0.14283589;stroke-linecap:round;stroke-linejoin:round;stroke-miterlimit:4;stroke-dasharray:none;stroke-dashoffset:0;stroke-opacity:1;paint-order:stroke markers fill" />
    <path
       sodipodi:nodetypes="sssss"
       inkscape:connector-curvature="0"
       id="path996"
       d="m 76.778782,151.86101 c -0.305963,0.0807 -0.507471,0.32253 -0.450067,0.54034 0.05739,0.21778 0.351963,0.32897 0.657918,0.24834 0.305968,-0.0807 1.348988,-0.69098 1.100775,-0.67435 0,0 -1.002658,-0.19497 -1.308621,-0.11433 z"
       style="opacity:1;fill:#020504;fill-opacity:1;stroke:none;stroke-width:0.14283589;stroke-linecap:round;stroke-linejoin:round;stroke-miterlimit:4;stroke-dasharray:none;stroke-dashoffset:0;stroke-opacity:1;paint-order:stroke markers fill" />
    <path
       sodipodi:nodetypes="sssss"
       inkscape:connector-curvature="0"
       id="path998"
       d="m 77.556552,154.28672 c -0.259072,0.18165 -0.364268,0.4784 -0.234951,0.66282 0.129296,0.1844 0.444144,0.18664 0.703208,0.005 0.259071,-0.18165 1.02599,-1.11561 0.79892,-1.014 0,0 -1.008106,0.16453 -1.267174,0.34618 z"
       style="opacity:1;fill:#020504;fill-opacity:1;stroke:none;stroke-width:0.14283589;stroke-linecap:round;stroke-linejoin:round;stroke-miterlimit:4;stroke-dasharray:none;stroke-dashoffset:0;stroke-opacity:1;paint-order:stroke markers fill" />
    <path
       sodipodi:nodetypes="sssss"
       inkscape:connector-curvature="0"
       id="path1000"
       d="m 79.177064,156.26983 c -0.172249,0.26543 -0.158729,0.57997 0.03019,0.70259 0.188923,0.12261 0.481718,0.007 0.653962,-0.25857 0.172252,-0.26541 0.533855,-1.41853 0.361323,-1.23931 0,0 -0.873251,0.52989 -1.045494,0.7953 z"
       style="opacity:1;fill:#020504;fill-opacity:1;stroke:none;stroke-width:0.14283589;stroke-linecap:round;stroke-linejoin:round;stroke-miterlimit:4;stroke-dasharray:none;stroke-dashoffset:0;stroke-opacity:1;paint-order:stroke markers fill" />
    <path
       sodipodi:nodetypes="sssss"
       inkscape:connector-curvature="0"
       id="path1002"
       d="m 81.41567,157.67098 c -0.09248,0.30259 0.0071,0.60124 0.222569,0.66707 0.215384,0.0658 0.464965,-0.1261 0.557444,-0.42869 0.09248,-0.3026 0.12248,-1.51072 0.006,-1.2909 0,0 -0.693519,0.74993 -0.785992,1.05252 z"
       style="opacity:1;fill:#020504;fill-opacity:1;stroke:none;stroke-width:0.14283589;stroke-linecap:round;stroke-linejoin:round;stroke-miterlimit:4;stroke-dasharray:none;stroke-dashoffset:0;stroke-opacity:1;paint-order:stroke markers fill" />
    <path
       sodipodi:nodetypes="sssss"
       inkscape:connector-curvature="0"
       id="path1005"
       d="m 83.998075,158.07618 c 0.03903,0.31398 0.251897,0.54599 0.475411,0.51818 0.223498,-0.0279 0.373027,-0.30488 0.333975,-0.61885 -0.03903,-0.314 -0.50467,-1.42918 -0.521311,-1.18098 0,0 -0.327123,0.96766 -0.288062,1.28164 z"
       style="opacity:1;fill:#020504;fill-opacity:1;stroke:none;stroke-width:0.14283589;stroke-linecap:round;stroke-linejoin:round;stroke-miterlimit:4;stroke-dasharray:none;stroke-dashoffset:0;stroke-opacity:1;paint-order:stroke markers fill" />
    <path
       sodipodi:nodetypes="sssss"
       inkscape:connector-curvature="0"
       id="path1007"
       d="m 86.48499,157.37836 c 0.147452,0.27995 0.428527,0.4218 0.627812,0.31684 0.19927,-0.10496 0.241275,-0.417 0.09383,-0.69694 -0.147454,-0.27996 -0.976993,-1.15876 -0.904881,-0.92068 0,0 0.03581,1.02082 0.18325,1.30077 z"
       style="opacity:1;fill:#020504;fill-opacity:1;stroke:none;stroke-width:0.14283589;stroke-linecap:round;stroke-linejoin:round;stroke-miterlimit:4;stroke-dasharray:none;stroke-dashoffset:0;stroke-opacity:1;paint-order:stroke markers fill" />
    <path
       sodipodi:nodetypes="sssss"
       inkscape:connector-curvature="0"
       id="path1009"
       d="m 88.645317,155.87731 c 0.23308,0.21398 0.5455,0.25295 0.697827,0.087 0.152311,-0.16592 0.08683,-0.47388 -0.146235,-0.68785 -0.233084,-0.21399 -1.310021,-0.7623 -1.161974,-0.56237 0,0 0.377303,0.9492 0.610391,1.16318 z"
       style="opacity:1;fill:#020504;fill-opacity:1;stroke:none;stroke-width:0.14283589;stroke-linecap:round;stroke-linejoin:round;stroke-miterlimit:4;stroke-dasharray:none;stroke-dashoffset:0;stroke-opacity:1;paint-order:stroke markers fill" />
    <path
       sodipodi:nodetypes="sssss"
       inkscape:connector-curvature="0"
       id="path1011"
       d="m 90.248487,153.78664 c 0.294775,0.11498 0.600085,0.0382 0.681941,-0.17173 0.08185,-0.20982 -0.09077,-0.47314 -0.385535,-0.58814 -0.294779,-0.11498 -1.497205,-0.23582 -1.286784,-0.10313 0,0 0.695603,0.748 0.990382,0.86299 z"
       style="opacity:1;fill:#020504;fill-opacity:1;stroke:none;stroke-width:0.14283589;stroke-linecap:round;stroke-linejoin:round;stroke-miterlimit:4;stroke-dasharray:none;stroke-dashoffset:0;stroke-opacity:1;paint-order:stroke markers fill" />
    <path
       sodipodi:nodetypes="sssss"
       inkscape:connector-curvature="0"
       id="path1013"
       d="m 90.828788,151.27415 c 0.314683,-0.0331 0.550725,-0.24138 0.527214,-0.46539 -0.02351,-0.22399 -0.297666,-0.3788 -0.61234,-0.34579 -0.314687,0.0331 -1.438596,0.47716 -1.19075,0.49856 0,0 0.961193,0.34563 1.275876,0.3126 z"
       style="opacity:1;fill:#020504;fill-opacity:1;stroke:none;stroke-width:0.14283589;stroke-linecap:round;stroke-linejoin:round;stroke-miterlimit:4;stroke-dasharray:none;stroke-dashoffset:0;stroke-opacity:1;paint-order:stroke markers fill" />
    <path
       sodipodi:nodetypes="sssss"
       inkscape:connector-curvature="0"
       id="path1015"
       d="m 90.330962,148.60724 c 0.291953,-0.12198 0.458241,-0.38933 0.371409,-0.59715 -0.08683,-0.20781 -0.39389,-0.2774 -0.685836,-0.15543 -0.291957,0.12197 -1.241046,0.87008 -0.997491,0.81943 0,0 1.01996,0.0551 1.311909,-0.0668 z"
       style="opacity:1;fill:#020504;fill-opacity:1;stroke:none;stroke-width:0.14283589;stroke-linecap:round;stroke-linejoin:round;stroke-miterlimit:4;stroke-dasharray:none;stroke-dashoffset:0;stroke-opacity:1;paint-order:stroke markers fill" />
    <path
       sodipodi:nodetypes="sssss"
       inkscape:connector-curvature="0"
       id="path1017"
       d="m 88.925277,146.54493 c 0.248779,-0.19552 0.337639,-0.49757 0.198463,-0.67466 -0.139172,-0.17708 -0.453664,-0.16214 -0.702436,0.0334 -0.248787,0.19551 -0.963635,1.16988 -0.74245,1.05603 0,0 0.997639,-0.21924 1.246414,-0.41477 z"
       style="opacity:1;fill:#020504;fill-opacity:1;stroke:none;stroke-width:0.14283589;stroke-linecap:round;stroke-linejoin:round;stroke-miterlimit:4;stroke-dasharray:none;stroke-dashoffset:0;stroke-opacity:1;paint-order:stroke markers fill" />
    <path
       sodipodi:nodetypes="sssss"
       inkscape:connector-curvature="0"
       id="path1019"
       d="m 87.031857,144.89963 c 0.150033,-0.27858 0.110911,-0.59098 -0.08732,-0.6978 -0.198294,-0.10678 -0.480669,0.0325 -0.630701,0.31103 -0.150042,0.27859 -0.416429,1.45735 -0.259092,1.26466 0,0 0.827148,-0.59933 0.977174,-0.8779 z"
       style="opacity:1;fill:#020504;fill-opacity:1;stroke:none;stroke-width:0.14283589;stroke-linecap:round;stroke-linejoin:round;stroke-miterlimit:4;stroke-dasharray:none;stroke-dashoffset:0;stroke-opacity:1;paint-order:stroke markers fill" />
    <path
       style="opacity:1;fill:#020504;fill-opacity:1;stroke:none;stroke-width:0.14283589;stroke-linecap:round;stroke-linejoin:round;stroke-miterlimit:4;stroke-dasharray:none;stroke-dashoffset:0;stroke-opacity:1;paint-order:stroke markers fill"
       d="m 84.663874,143.82262 c 0.0333,-0.31466 -0.121262,-0.58894 -0.345194,-0.61268 -0.223968,-0.0237 -0.432529,0.21215 -0.465832,0.52679 -0.03329,0.31467 0.166774,1.50647 0.239374,1.26853 0,0 0.538415,-0.86802 0.571702,-1.18268 z"
       id="path985"
       inkscape:connector-curvature="0"
       sodipodi:nodetypes="sssss" />
    <path
       style="fill:#633d24;fill-opacity:1;stroke:none;stroke-width:0.10249349px;stroke-linecap:butt;stroke-linejoin:miter;stroke-opacity:1"
       d="m 99.145896,137.83464 1.013124,-1.39385 0.45469,1.11491 1.19757,-0.087 0.29374,1.20941 1.35557,-0.1298 -1.24056,1.74379 z"
       id="path958"
       inkscape:connector-curvature="0" />
    <ellipse
       style="opacity:1;fill:#71472e;fill-opacity:1;stroke:none;stroke-width:0.14426778;stroke-linecap:round;stroke-linejoin:round;stroke-miterlimit:4;stroke-dasharray:none;stroke-dashoffset:0;stroke-opacity:1;paint-order:stroke markers fill"
       id="path956"
       cx="153.75749"
       cy="86.22541"
       rx="10.121729"
       ry="13.223341"
       transform="matrix(0.8773345,0.47987934,-0.4754988,0.87971637,0,0)" />
  </g>
</svg>
