<?xml version="1.0" encoding="UTF-8" standalone="no"?>
<!-- Created with Inkscape (http://www.inkscape.org/) -->

<svg
   xmlns:dc="http://purl.org/dc/elements/1.1/"
   xmlns:cc="http://creativecommons.org/ns#"
   xmlns:rdf="http://www.w3.org/1999/02/22-rdf-syntax-ns#"
   xmlns:svg="http://www.w3.org/2000/svg"
   xmlns="http://www.w3.org/2000/svg"
   xmlns:sodipodi="http://sodipodi.sourceforge.net/DTD/sodipodi-0.dtd"
   xmlns:inkscape="http://www.inkscape.org/namespaces/inkscape"
   width="129.69702"
   height="97.56842"
   viewBox="0 0 34.31567 25.814977"
   version="1.1"
   id="svg8"
   inkscape:version="0.92.3 (unknown)"
   sodipodi:docname="peach.svg">
  <defs
     id="defs2" />
  <sodipodi:namedview
     id="base"
     pagecolor="#ffffff"
     bordercolor="#666666"
     borderopacity="1.0"
     inkscape:pageopacity="0.0"
     inkscape:pageshadow="2"
     inkscape:zoom="1.8667619"
     inkscape:cx="54.838727"
     inkscape:cy="48.071554"
     inkscape:document-units="px"
     inkscape:current-layer="layer1"
     showgrid="false"
     inkscape:window-width="1024"
     inkscape:window-height="573"
     inkscape:window-x="0"
     inkscape:window-y="0"
     inkscape:window-maximized="1"
     fit-margin-right="1.5"
     fit-margin-top="0"
     fit-margin-left="0"
     fit-margin-bottom="0"
     showguides="true"
     inkscape:guide-bbox="true"
     units="px" />
  <metadata
     id="metadata5">
    <rdf:RDF>
      <cc:Work
         rdf:about="">
        <dc:format>image/svg+xml</dc:format>
        <dc:type
           rdf:resource="http://purl.org/dc/dcmitype/StillImage" />
        <dc:title></dc:title>
      </cc:Work>
    </rdf:RDF>
  </metadata>
  <g
     inkscape:label="Capa 1"
     inkscape:groupmode="layer"
     id="layer1"
     transform="translate(-94.36048,-146.4872)">
    <path
       style="opacity:1;fill:none;fill-opacity:1;stroke:#f3e9e9;stroke-width:1.12916577;stroke-linecap:round;stroke-linejoin:round;stroke-miterlimit:4;stroke-dasharray:none;stroke-dashoffset:0;stroke-opacity:1;paint-order:stroke markers fill"
       d="m 117.03117,147.59111 -0.90638,0.65275 0.50088,1.22404 c -2.87058,0.2019 -5.37863,1.66427 -6.99393,3.81801 -2.28035,-1.14349 -5.01254,-1.41487 -7.59978,-0.51672 -5.024632,1.74423 -7.595458,7.23105 -5.857273,12.14475 1.738188,4.9137 7.220723,7.48334 12.245373,5.7391 1.88252,-0.6535 3.43335,-1.82004 4.54582,-3.28153 1.31937,0.66322 2.81417,1.03981 4.39974,1.03981 5.32422,0 9.6404,-4.22076 9.6404,-9.42742 0,-4.04659 -2.64299,-7.56598 -6.31984,-8.93403 0.74656,-0.62864 1.71251,-2.30278 1.05006,-2.05587 -0.89045,0.33182 -1.74213,0.0773 -2.49643,0.53135 v 4.4e-4 c -0.44856,0.27002 -0.82893,0.59921 -1.02209,0.95954 -0.11226,-0.0105 -0.22476,-0.0192 -0.33806,-0.0258 z"
       id="path1473"
       inkscape:connector-curvature="0" />
    <path
       style="opacity:1;fill:#ffab17;fill-opacity:1;stroke:none;stroke-width:1.45315588;stroke-linecap:round;stroke-linejoin:round;stroke-miterlimit:4;stroke-dasharray:none;stroke-dashoffset:0;stroke-opacity:1;paint-order:stroke markers fill"
       d="m 114.26187,158.50638 c 1.67623,4.78342 -0.89298,10.03764 -5.73853,11.73563 -4.84554,1.69801 -10.132467,-0.80321 -11.8087,-5.58663 -1.676234,-4.78341 0.802803,-10.1251 5.64834,-11.82309 4.84553,-1.69802 10.22265,0.89067 11.89889,5.67409 z"
       id="path1411"
       inkscape:connector-curvature="0"
       sodipodi:nodetypes="sssss" />
    <path
       sodipodi:nodetypes="sssss"
       inkscape:connector-curvature="0"
       id="path1459"
       d="m 113.20981,158.86794 c 1.47565,4.21103 -0.78613,8.83654 -5.05187,10.33136 -4.26573,1.49482 -8.920032,-0.70712 -10.395684,-4.91816 -1.475654,-4.21103 0.706739,-8.91354 4.972474,-10.40836 4.26572,-1.49483 8.99941,0.7841 10.47508,4.99516 z"
       style="opacity:1;fill:#fed425;fill-opacity:1;stroke:none;stroke-width:1.27927387;stroke-linecap:round;stroke-linejoin:round;stroke-miterlimit:4;stroke-dasharray:none;stroke-dashoffset:0;stroke-opacity:1;paint-order:stroke markers fill" />
    <path
       style="opacity:1;fill:#fedd50;fill-opacity:1;stroke:none;stroke-width:1.18266809;stroke-linecap:round;stroke-linejoin:round;stroke-miterlimit:4;stroke-dasharray:none;stroke-dashoffset:0;stroke-opacity:1;paint-order:stroke markers fill"
       d="m 112.6253,159.0688 c 1.36422,3.89303 -0.72676,8.16923 -4.67037,9.55117 -3.9436,1.38195 -8.246421,-0.6537 -9.610642,-4.54674 -1.364213,-3.89304 0.653379,-8.24043 4.596962,-9.62237 3.9436,-1.38194 8.31982,0.72489 9.68405,4.61794 z"
       id="path1469"
       inkscape:connector-curvature="0"
       sodipodi:nodetypes="sssss" />
    <path
       sodipodi:nodetypes="sssss"
       inkscape:connector-curvature="0"
       id="path1471"
       d="m 112.09392,159.2514 c 1.26292,3.60395 -0.67279,7.5626 -4.32354,8.84193 -3.65075,1.27931 -7.63405,-0.60516 -8.896962,-4.20911 -1.262918,-3.60396 0.604854,-7.62851 4.255592,-8.90783 3.65075,-1.27932 7.70201,0.67107 8.96491,4.27501 z"
       style="opacity:1;fill:#fee57b;fill-opacity:1;stroke:none;stroke-width:1.09484434;stroke-linecap:round;stroke-linejoin:round;stroke-miterlimit:4;stroke-dasharray:none;stroke-dashoffset:0;stroke-opacity:1;paint-order:stroke markers fill" />
    <path
       sodipodi:nodetypes="scscs"
       inkscape:connector-curvature="0"
       id="path1467"
       d="m 101.92625,161.83983 c 0.8749,2.44039 3.5839,4.5658 5.08294,4.68494 0.91321,-1.51522 2.19034,-4.50081 1.31547,-6.9412 -0.87469,-2.44044 -3.01642,-3.91363 -4.78328,-3.29059 -1.76686,0.6231 -2.49,3.10646 -1.61513,5.54685 z"
       style="opacity:1;fill:#ffab17;fill-opacity:1;stroke:none;stroke-width:0.65081513;stroke-linecap:round;stroke-linejoin:round;stroke-miterlimit:4;stroke-dasharray:none;stroke-dashoffset:0;stroke-opacity:1;paint-order:stroke markers fill" />
    <path
       style="opacity:1;fill:#995e19;fill-opacity:1;stroke:none;stroke-width:0.62373602;stroke-linecap:round;stroke-linejoin:round;stroke-miterlimit:4;stroke-dasharray:none;stroke-dashoffset:0;stroke-opacity:1;paint-order:stroke markers fill"
       d="m 102.0691,161.82069 c 0.83853,2.33881 3.43478,4.37581 4.87144,4.48999 0.8752,-1.45216 2.09921,-4.31354 1.26074,-6.65239 -0.83831,-2.33889 -2.89091,-3.75078 -4.58426,-3.15367 -1.69333,0.59718 -2.38638,2.97721 -1.54792,5.31607 z"
       id="path1465"
       inkscape:connector-curvature="0"
       sodipodi:nodetypes="scscs" />
    <path
       sodipodi:nodetypes="scscs"
       inkscape:connector-curvature="0"
       id="path1223"
       d="m 102.42621,161.77279 c 0.74753,2.08498 3.06197,3.90088 4.34272,4.00268 0.78022,-1.29456 1.87136,-3.84538 1.12391,-5.93039 -0.74739,-2.08501 -2.57715,-3.34369 -4.08671,-2.81137 -1.50955,0.53237 -2.12738,2.65408 -1.37992,4.73908 z"
       style="opacity:1;fill:#d07f22;fill-opacity:1;stroke:none;stroke-width:0.55603814;stroke-linecap:round;stroke-linejoin:round;stroke-miterlimit:4;stroke-dasharray:none;stroke-dashoffset:0;stroke-opacity:1;paint-order:stroke markers fill" />
    <path
       sodipodi:nodetypes="sssss"
       inkscape:connector-curvature="0"
       id="path1457"
       d="m 126.44688,158.88244 c 0,5.06859 -4.16229,9.17751 -9.29673,9.17751 -5.13443,0 -9.29671,-4.10892 -9.29671,-9.17751 0,-5.06862 4.10609,-9.2899 9.24053,-9.2899 5.13444,0 9.35291,4.22128 9.35291,9.2899 z"
       style="opacity:1;fill:#ffab17;fill-opacity:1;stroke:none;stroke-width:1.45315588;stroke-linecap:round;stroke-linejoin:round;stroke-miterlimit:4;stroke-dasharray:none;stroke-dashoffset:0;stroke-opacity:1;paint-order:stroke markers fill" />
    <path
       style="opacity:1;fill:#fcc02c;fill-opacity:0.68333333;stroke:none;stroke-width:0.22343644;stroke-linecap:round;stroke-linejoin:round;stroke-miterlimit:4;stroke-dasharray:none;stroke-dashoffset:0;stroke-opacity:1;paint-order:stroke markers fill"
       d="m 116.74208,154.49178 c 0.81139,1.21276 0.25688,3.00695 -1.23852,4.00746 -1.49543,1.00051 -3.36547,0.82846 -4.17685,-0.3843 -0.81138,-1.21274 -0.97706,-2.29467 0.51836,-3.29518 1.49542,-1.0005 4.08564,-1.54072 4.89701,-0.32798 z"
       id="path1413"
       inkscape:connector-curvature="0"
       sodipodi:nodetypes="cscsc" />
    <path
       style="opacity:1;fill:#803300;fill-opacity:0.24444442;stroke:none;stroke-width:0.056447;stroke-linecap:round;stroke-linejoin:round;stroke-miterlimit:4;stroke-dasharray:none;stroke-dashoffset:0;stroke-opacity:1;paint-order:stroke markers fill"
       d="m 118.26495,150.708 c 0.20498,0.30636 0.0649,0.75966 -0.3129,1.01241 -0.37778,0.25275 -0.85021,0.20931 -1.05519,-0.0971 -0.20498,-0.30637 -0.24684,-0.5797 0.13094,-0.83246 0.37777,-0.25277 1.03216,-0.38924 1.23713,-0.083 z"
       id="path1419"
       inkscape:connector-curvature="0"
       sodipodi:nodetypes="cscsc" />
    <path
       sodipodi:nodetypes="cscsc"
       inkscape:connector-curvature="0"
       id="path1417"
       d="m 113.55513,155.40554 c 0.17416,0.26028 0.0551,0.64537 -0.26581,0.86012 -0.32096,0.21473 -0.72233,0.1778 -0.89648,-0.0825 -0.17415,-0.26029 -0.20971,-0.49251 0.11125,-0.70725 0.32095,-0.21473 0.8769,-0.33068 1.05103,-0.0704 z"
       style="opacity:1;fill:#ffffff;fill-opacity:1;stroke:none;stroke-width:0.04795612;stroke-linecap:round;stroke-linejoin:round;stroke-miterlimit:4;stroke-dasharray:none;stroke-dashoffset:0;stroke-opacity:1;paint-order:stroke markers fill" />
    <path
       style="fill:#a77335;fill-opacity:1;stroke:none;stroke-width:0.19705851px;stroke-linecap:butt;stroke-linejoin:miter;stroke-opacity:1"
       d="m 115.95344,148.42724 1.19188,2.93999 1.11244,-0.39729 -1.43025,-3.17837 z"
       id="path1423"
       inkscape:connector-curvature="0" />
    <path
       style="opacity:1;fill:#2a7610;fill-opacity:1;stroke:none;stroke-width:0.06102949;stroke-linecap:round;stroke-linejoin:round;stroke-miterlimit:4;stroke-dasharray:none;stroke-dashoffset:0;stroke-opacity:1;paint-order:stroke markers fill"
       d="m 118.95759,148.70136 c -0.72739,0.44199 -1.27314,1.04657 -1.0771,1.68486 0.15974,0.52009 1.5565,0.38197 2.28391,-0.06 0.72738,-0.44199 1.89684,-2.40424 1.20069,-2.14234 -0.8587,0.32302 -1.68011,0.0755 -2.4075,0.51752 z"
       id="path908"
       inkscape:connector-curvature="0"
       sodipodi:nodetypes="sssss" />
    <path
       style="fill:none;stroke:#ffffff;stroke-width:0.07333761px;stroke-linecap:butt;stroke-linejoin:miter;stroke-opacity:0.4"
       d="m 118.09507,150.28532 2.666,-1.46743"
       id="path1386"
       inkscape:connector-curvature="0" />
    <path
       inkscape:connector-curvature="0"
       id="path937"
       d="m 118.09507,150.28532 2.666,-1.46743"
       style="fill:none;stroke:#ffffff;stroke-width:0.07333761px;stroke-linecap:butt;stroke-linejoin:miter;stroke-opacity:0.4" />
    <path
       style="fill:none;stroke:#ffffff;stroke-width:0.07333761px;stroke-linecap:butt;stroke-linejoin:miter;stroke-opacity:0.4"
       d="m 118.75238,150.0316 0.35291,0.31746"
       id="path1388"
       inkscape:connector-curvature="0" />
    <path
       inkscape:connector-curvature="0"
       id="path939"
       d="m 118.75238,150.0316 0.35291,0.31746"
       style="fill:none;stroke:#ffffff;stroke-width:0.07333761px;stroke-linecap:butt;stroke-linejoin:miter;stroke-opacity:0.4" />
    <path
       style="fill:none;stroke:#ffffff;stroke-width:0.07333761px;stroke-linecap:butt;stroke-linejoin:miter;stroke-opacity:0.4"
       d="m 119.33512,149.60178 0.55431,0.34747"
       id="path1390"
       inkscape:connector-curvature="0" />
    <path
       inkscape:connector-curvature="0"
       id="path941"
       d="m 119.33512,149.60178 0.55431,0.34747"
       style="fill:none;stroke:#ffffff;stroke-width:0.07333761px;stroke-linecap:butt;stroke-linejoin:miter;stroke-opacity:0.4" />
    <path
       style="fill:none;stroke:#ffffff;stroke-width:0.07333761px;stroke-linecap:butt;stroke-linejoin:miter;stroke-opacity:0.4"
       d="m 120.36428,149.14733 0.41514,0.27679"
       id="path1392"
       inkscape:connector-curvature="0" />
    <path
       inkscape:connector-curvature="0"
       id="path943"
       d="m 120.36428,149.14733 0.41514,0.27679"
       style="fill:none;stroke:#ffffff;stroke-width:0.07333761px;stroke-linecap:butt;stroke-linejoin:miter;stroke-opacity:0.4" />
    <path
       style="fill:none;stroke:#ffffff;stroke-width:0.07333761px;stroke-linecap:butt;stroke-linejoin:miter;stroke-opacity:0.4"
       d="m 119.83223,149.29814 -0.0191,-0.58464"
       id="path1394"
       inkscape:connector-curvature="0" />
    <path
       inkscape:connector-curvature="0"
       id="path945"
       d="m 119.83223,149.29814 -0.0191,-0.58464"
       style="fill:none;stroke:#ffffff;stroke-width:0.07333761px;stroke-linecap:butt;stroke-linejoin:miter;stroke-opacity:0.4" />
    <path
       style="fill:none;stroke:#ffffff;stroke-width:0.07333761px;stroke-linecap:butt;stroke-linejoin:miter;stroke-opacity:0.4"
       d="m 118.75238,150.0316 0.0114,-0.86448"
       id="path1396"
       inkscape:connector-curvature="0" />
    <path
       inkscape:connector-curvature="0"
       id="path947"
       d="m 118.75238,150.0316 0.0114,-0.86448"
       style="fill:none;stroke:#ffffff;stroke-width:0.07333761px;stroke-linecap:butt;stroke-linejoin:miter;stroke-opacity:0.4" />
    <path
       style="fill:none;stroke:#ffffff;stroke-width:0.07333761px;stroke-linecap:butt;stroke-linejoin:miter;stroke-opacity:0.4"
       d="m 119.33512,149.60178 0.0649,-0.66763"
       id="path1398"
       inkscape:connector-curvature="0" />
    <path
       inkscape:connector-curvature="0"
       id="path949"
       d="m 119.33512,149.60178 0.0649,-0.66763"
       style="fill:none;stroke:#ffffff;stroke-width:0.07333761px;stroke-linecap:butt;stroke-linejoin:miter;stroke-opacity:0.4" />
  </g>
</svg>
